<svg width="1633.500000" height="463.815674" viewBox="0 0 1633.5 463.816" fill="none" xmlns="http://www.w3.org/2000/svg" xmlns:xlink="http://www.w3.org/1999/xlink">
	<desc>
			Created with Pixso.
	</desc>
	<defs/>
	<path id="Vector 3" d="M1510.5 166.1L1510.5 91.07L1489.2 57.72L1408.14 35.03L1384.52 54.48L1379.43 152.67L1372.94 120.25L1345.16 57.72L1340.06 11.41L1323.39 6.31L1314.12 42.9L1295.13 91.07L1276.61 91.07L1266.42 81.34L1217.79 91.07L1217.79 125.34L1206.21 120.25L1206.21 73.47L1156.18 48.46L1134.42 48.46L1025.57 81.34L1001.96 85.05L963.51 100.33L969.54 211.95L954.25 217.04L954.25 207.78L910.72 207.78L910.72 217.04L859.77 217.04L831.5 225.31L819.5 239.31L808.5 304.31L794.5 330.81L734 343.31L694.5 371.31L100 371.31L79.5 392.81L50 406.81L5 437.81L5 458.81L1628.5 458.81L1628.5 398.31L1577 370.81L1563 339.81L1556 188.31L1544 188.31L1510.5 166.1Z" stroke="#FFFFFF" stroke-opacity="1.000000" stroke-width="10.000000"/>
</svg>
