<svg viewBox="0 0 349.978 349.978" fill="none" xmlns="http://www.w3.org/2000/svg" xmlns:xlink="http://www.w3.org/1999/xlink">
	<defs/>
	<g style="mix-blend-mode:overlay">
		<path id="Vector" d="M239.23 302.56L239.05 302.19L239.73 301.73L237.84 297.97L237.69 299.21L236.83 302.93L236.92 303.14L237.62 302.91L237.8 303.28L235.72 304.33L235.55 303.96L236.11 303.57L233.79 298.86L233.13 299.09L232.96 298.73L235.07 297.69L235.25 298.05L234.64 298.44L236.56 302.26L236.68 301.1L237.56 297.3L237.41 297.03L236.65 297.28L236.47 296.91L238.59 295.87L238.76 296.24L238.16 296.63L240.48 301.34L241.12 301.14L241.3 301.51L239.23 302.56Z" fill="#f6950099" fill-opacity="1.000000" fill-rule="nonzero"/>
		<path id="Vector" d="M234.1 304.91C233.87 305.08 233.71 305.17 233.55 305.26C233.38 305.36 233.22 305.45 233.07 305.5C232.44 305.79 231.9 305.93 231.46 305.85C231.02 305.78 230.71 305.56 230.52 305.1C230.35 304.68 230.31 304.31 230.46 303.93C230.61 303.56 230.87 303.26 231.21 303.03C230.74 303.23 230.32 303.25 229.94 303.15C229.56 303 229.31 302.75 229.13 302.38C228.87 301.81 228.86 301.35 229.07 300.9C229.28 300.45 229.75 300.07 230.49 299.72C230.8 299.57 231.11 299.47 231.34 299.44C231.59 299.37 231.83 299.34 231.97 299.33C232.11 299.32 232.2 299.3 232.25 299.32L232.7 300.72L232.33 300.9L231.66 299.98C231.34 299.95 231 300.04 230.53 300.23C230.18 300.37 229.98 300.59 229.9 300.89C229.82 301.19 229.87 301.52 230.03 301.94C230.18 302.25 230.39 302.49 230.68 302.61C230.96 302.74 231.34 302.7 231.81 302.5L232.33 302.28L232.54 302.7L232.07 302.89C231.86 302.98 231.69 303.11 231.5 303.29C231.36 303.49 231.26 303.69 231.2 303.9C231.19 304.13 231.2 304.41 231.32 304.67C231.45 305.02 231.68 305.22 231.93 305.29C232.19 305.36 232.48 305.3 232.84 305.17C233.06 305.04 233.26 304.96 233.39 304.81C233.52 304.66 233.6 304.54 233.62 304.46L233.47 303.68L233.94 303.44L234.55 304.61C234.49 304.65 234.33 304.74 234.1 304.91Z" fill="#f6950099" fill-opacity="1.000000" fill-rule="nonzero"/>
		<path id="Vector" d="M227.24 307.38L227.92 307.25L228.08 307.66L227.01 308.06C226.85 308.15 226.6 308.22 226.34 308.34C226.08 308.45 225.92 308.54 225.81 308.61C225.1 308.88 224.52 308.95 224.14 308.85C223.75 308.75 223.46 308.48 223.3 308.03C223.17 307.67 223.13 307.29 223.27 306.96C223.36 306.62 223.62 306.32 223.95 306.14C223.44 306.32 223.01 306.39 222.63 306.24C222.26 306.1 221.96 305.83 221.81 305.38C221.58 304.86 221.62 304.36 221.89 303.89C222.15 303.41 222.68 302.99 223.54 302.68C223.75 302.59 223.9 302.54 224.09 302.5C224.5 302.38 224.76 302.27 224.85 302.25L225.88 301.83L226 302.23L225.36 302.57L227.24 307.38ZM223.68 303.03C223.16 303.26 222.82 303.49 222.64 303.81C222.46 304.13 222.51 304.47 222.64 304.87C222.8 305.28 223.01 305.52 223.3 305.64C223.59 305.76 223.97 305.73 224.43 305.53C224.95 305.3 225.3 305.21 225.46 305.12L224.57 302.77C224.39 302.76 224.13 302.88 223.68 303.03ZM225.15 305.77L224.74 305.93C224.38 306.07 224.14 306.28 224.02 306.57C223.89 306.85 223.9 307.18 224.07 307.55C224.21 307.9 224.42 308.14 224.66 308.26C224.91 308.37 225.29 308.33 225.75 308.13C225.96 308.05 226.12 307.96 226.33 307.88L226.49 307.78L225.66 305.58C225.55 305.65 225.4 305.7 225.15 305.77Z" fill="#f6950099" fill-opacity="1.000000" fill-rule="nonzero"/>
		<path id="Vector" d="M220.55 310.41L219.69 310.73L215.9 305.86L215.37 305.95L215.24 305.55L217.37 304.83L217.49 305.23L216.86 305.52L217.63 306.6L219.95 305.8L219.93 304.51L219.21 304.64L219.09 304.24L221 303.6L221.12 304L220.65 304.24L220.55 310.41ZM219.66 309.3L220.09 309.92L220.03 309.12L219.95 306.31L217.93 307L219.66 309.3Z" fill="#f6950099" fill-opacity="1.000000" fill-rule="nonzero"/>
		<path id="Vector" d="M213.96 306.22C214.48 306.35 214.87 306.6 215.22 307.01C215.57 307.43 215.85 307.91 216 308.55C216.16 309.15 216.2 309.71 216.09 310.27C215.98 310.84 215.73 311.28 215.36 311.64C214.99 312 214.54 312.29 213.99 312.47C213.59 312.59 213.06 312.68 212.46 312.7L212.18 312.71L211.84 311.25L212.39 311.07L212.91 312.04C212.99 312.06 213.17 312.11 213.35 312.11C213.53 312.11 213.78 312.04 214.07 311.98C214.42 311.89 214.7 311.69 214.91 311.43C215.12 311.16 215.26 310.79 215.28 310.38C215.3 309.97 215.25 309.45 215.11 308.96C214.97 308.46 214.77 307.99 214.5 307.64C214.23 307.29 213.94 306.99 213.61 306.85C213.28 306.72 212.88 306.66 212.48 306.78C212.19 306.84 211.97 306.97 211.86 307.03C211.76 307.09 211.62 307.24 211.55 307.36L211.45 308.25L210.92 308.34L210.78 307.15C210.87 307.13 211.04 307.04 211.25 306.91C211.43 306.77 211.59 306.68 211.8 306.6C211.96 306.5 212.21 306.43 212.46 306.36C212.93 306.12 213.45 306.08 213.96 306.22Z" fill="#f6950099" fill-opacity="1.000000" fill-rule="nonzero"/>
		<path id="Vector" d="M207.61 312.78C207.45 313.24 207.19 313.67 206.88 313.96C206.52 314.28 206.14 314.5 205.71 314.56C205.17 314.69 204.68 314.65 204.26 314.5C203.85 314.34 203.46 314.05 203.16 313.65C202.85 313.25 202.61 312.77 202.51 312.14C202.37 311.46 202.34 310.86 202.44 310.33C202.55 309.77 202.8 309.33 203.13 308.96C203.46 308.59 203.88 308.38 204.38 308.24C204.92 308.11 205.42 308.1 205.88 308.27C206.34 308.44 206.68 308.72 207 309.08C207.3 309.48 207.54 309.96 207.65 310.58L208.97 310.29L208.42 307.9L207.71 307.98L207.63 307.59L209.88 307.05L209.96 307.44L209.3 307.67L210.51 312.77L211.17 312.72L211.25 313.11L209.04 313.62L208.96 313.23L209.62 312.99L209.11 310.79L207.78 311.12C207.79 311.77 207.74 312.31 207.61 312.78ZM206.68 313.17C206.88 312.63 206.88 311.94 206.67 311.01C206.46 310.22 206.17 309.59 205.77 309.21C205.37 308.82 204.91 308.66 204.33 308.77C203.79 308.91 203.47 309.23 203.29 309.74C203.11 310.24 203.14 310.98 203.35 311.91C203.55 312.7 203.8 313.32 204.2 313.7C204.59 314.12 205.06 314.25 205.56 314.11C206.13 314.03 206.49 313.72 206.68 313.17Z" fill="#f6950099" fill-opacity="1.000000" fill-rule="nonzero"/>
		<path id="Vector" d="M198.03 312.41C197.77 312.16 197.4 311.83 197.01 311.41C196.72 311.1 196.56 310.87 196.41 310.74C196.26 310.61 196.14 310.53 196.06 310.51L195.75 310.47L195.67 310.08L196.68 309.89C196.82 309.89 196.98 309.97 197.16 310.16C197.34 310.35 197.63 310.65 197.93 311.05C198.31 311.52 198.6 311.83 198.85 312.08C199.06 312.32 199.26 312.42 199.46 312.38L199.99 312.29L199.56 309.93L198.82 309.96L198.74 309.57L201.01 309.17L201.07 309.6L200.43 309.79L201.34 314.95L202.03 314.95L202.1 315.38L199.88 315.76L199.84 315.24L200.5 315L200.09 312.6L199.37 312.72L198.09 315.41L198.79 315.37L198.86 315.8L196.83 316.18L196.77 315.75L197.41 315.55L198.79 312.8C198.57 312.79 198.29 312.62 198.03 312.41Z" fill="#f6950099" fill-opacity="1.000000" fill-rule="nonzero"/>
		<path id="Vector" d="M194.26 310.53C194.71 310.74 195.04 311.06 195.28 311.54C195.53 311.97 195.7 312.52 195.81 313.15C195.92 313.77 195.85 314.35 195.66 314.9C195.48 315.4 195.18 315.83 194.82 316.14C194.42 316.45 194 316.66 193.43 316.73C192.56 316.87 191.83 316.67 191.33 316.17C190.82 315.67 190.45 314.97 190.35 313.98C190.26 313.31 190.32 312.73 190.5 312.23C190.69 311.69 190.98 311.3 191.35 310.94C191.75 310.64 192.22 310.44 192.75 310.35C193.32 310.28 193.81 310.32 194.26 310.53ZM194.61 315.4C194.84 314.86 194.93 314.2 194.82 313.25C194.72 312.4 194.48 311.78 194.1 311.31C193.72 310.84 193.26 310.68 192.73 310.76C192.2 310.85 191.81 311.11 191.57 311.65C191.34 312.18 191.24 312.89 191.37 313.79C191.46 314.65 191.71 315.26 192.1 315.69C192.45 316.1 192.89 316.32 193.47 316.24C193.97 316.24 194.37 315.93 194.61 315.4Z" fill="#f6950099" fill-opacity="1.000000" fill-rule="nonzero"/>
		<path id="Vector" d="M189.13 316.64L189.81 316.68L189.84 317.1L188.71 317.21C188.52 317.21 188.27 317.28 187.99 317.3C187.7 317.36 187.52 317.35 187.42 317.38C186.67 317.45 186.09 317.38 185.74 317.15C185.39 316.92 185.2 316.6 185.14 316.12C185.11 315.74 185.21 315.36 185.37 315.08C185.54 314.8 185.88 314.57 186.28 314.45C185.76 314.5 185.32 314.42 184.97 314.19C184.62 313.96 184.44 313.59 184.42 313.17C184.38 312.61 184.51 312.14 184.89 311.74C185.28 311.34 185.89 311.09 186.83 311.02C187.02 310.98 187.21 310.98 187.43 311C187.85 310.97 188.13 310.95 188.22 310.98L189.35 310.87L189.38 311.29L188.7 311.43L189.13 316.64ZM186.89 311.49C186.33 311.53 185.92 311.69 185.71 311.96C185.45 312.21 185.36 312.55 185.43 312.99C185.46 313.4 185.6 313.72 185.84 313.87C186.07 314.03 186.46 314.13 186.93 314.07C187.49 314.04 187.87 314 188.02 313.95L187.81 311.47C187.64 311.42 187.36 311.44 186.89 311.49ZM187.59 314.53L187.11 314.58C186.74 314.62 186.42 314.76 186.27 315C186.11 315.23 186.02 315.58 186.06 315.95C186.1 316.33 186.2 316.63 186.43 316.79C186.67 316.94 187.01 317.03 187.48 316.98C187.68 316.94 187.9 316.95 188.11 316.87L188.3 316.83L188.11 314.48C187.97 314.49 187.83 314.5 187.59 314.53Z" fill="#f6950099" fill-opacity="1.000000" fill-rule="nonzero"/>
		<path id="Vector" d="M175.9 317.87L175.88 317.45L176.6 317.32L176.44 312.09L175.64 312.01L175.61 311.59L177.97 311.54L177.99 311.96L177.28 312.04L177.43 317.31L180.11 317.25L179.96 311.98L179.2 311.91L179.17 311.49L181.53 311.44L181.56 311.85L180.89 311.95L181.05 317.18L181.76 317.28L181.78 317.7L175.9 317.87Z" fill="#f6950099" fill-opacity="1.000000" fill-rule="nonzero"/>
		<path id="Vector" d="M173.92 311.92C174.3 312.21 174.62 312.57 174.8 313.07C175 313.54 175.07 314.11 175.09 314.76C175.05 315.39 174.95 315.96 174.68 316.44C174.41 316.92 174.09 317.29 173.65 317.54C173.22 317.79 172.72 317.93 172.21 317.94C171.34 317.93 170.69 317.62 170.24 317.09C169.8 316.51 169.58 315.76 169.58 314.75C169.57 314.1 169.73 313.51 169.99 313.03C170.26 312.55 170.6 312.13 171.04 311.88C171.47 311.63 171.97 311.49 172.52 311.5C173.06 311.51 173.54 311.63 173.92 311.92ZM173.58 316.79C173.89 316.32 174.07 315.63 174.09 314.72C174.08 313.89 173.94 313.21 173.66 312.72C173.37 312.23 172.94 311.98 172.39 311.97C171.84 311.96 171.41 312.21 171.1 312.68C170.79 313.15 170.59 313.88 170.58 314.79C170.57 315.66 170.68 316.29 171.01 316.79C171.29 317.28 171.73 317.53 172.27 317.54C172.8 317.45 173.23 317.24 173.58 316.79Z" fill="#f6950099" fill-opacity="1.000000" fill-rule="nonzero"/>
		<path id="Vector" d="M166.93 313.67C167.09 312.89 167.28 312.35 167.57 311.96C167.71 311.77 167.85 311.62 168.01 311.53C168.17 311.44 168.37 311.4 168.55 311.4C168.82 311.43 169 311.43 169.13 311.46L169.13 312.15C169 312.12 168.77 312.1 168.5 312.08C168.42 312.05 168.32 312.07 168.21 312.14C168.1 312.2 168.04 312.27 167.97 312.35C167.48 313 167.21 314.35 167.08 316.38L167.03 317.05L168 317.22L167.98 317.63L163.1 317.33L163.12 316.92L163.92 316.86L164.26 311.63L163.43 311.5L163.44 311.09L166.01 311.27L165.99 311.68L165.11 311.72L164.77 316.95L166.48 317.04L166.55 316.28C166.68 315.3 166.78 314.41 166.93 313.67Z" fill="#f6950099" fill-opacity="1.000000" fill-rule="nonzero"/>
		<path id="Vector" d="M161.57 316.69L162.26 316.88L162.2 317.27L157.92 316.81L157.95 315.49L158.44 315.53L158.59 316.35L160.67 316.63L160.94 314.27L159.55 314.13L159.37 314.82L158.92 314.79L159.11 312.87L159.56 312.89L159.59 313.64L160.97 313.82L161.22 311.32L158.84 311.14L158.3 312.14L157.8 311.92L158.19 310.46L162.83 310.97L162.77 311.37L162.08 311.37L161.57 316.69Z" fill="#f6950099" fill-opacity="1.000000" fill-rule="nonzero"/>
		<path id="Vector" d="M154.62 315.93L156.05 316.08L156.59 314.39L157.12 314.49L156.66 316.71L151.46 315.91L151.69 313.68L152.21 313.77L152.24 315.57L153.68 315.82L154.45 310.56L153.28 310.29L153.34 309.9L156.52 310.38L156.46 310.78L155.37 310.72L154.62 315.93Z" fill="#f6950099" fill-opacity="1.000000" fill-rule="nonzero"/>
		<path id="Vector" d="M148.61 311.79L149.01 311.85C149.16 311.8 149.34 311.63 149.5 311.39C149.65 311.16 149.92 310.86 150.15 310.51C150.38 310.16 150.59 309.89 150.73 309.7C150.88 309.51 150.98 309.45 151.07 309.47L152.21 309.68L152.14 310.08L151.81 310.13C151.71 310.15 151.62 310.17 151.49 310.32C151.37 310.42 151.17 310.64 150.96 310.91C150.68 311.25 150.48 311.51 150.29 311.69C150.09 311.92 149.93 312.01 149.72 312.09C150.09 312.28 150.34 312.53 150.49 312.85C150.63 313.16 150.67 313.54 150.6 313.98C150.47 314.63 150.17 315.06 149.76 315.22C149.3 315.38 148.74 315.41 148 315.26C147.83 315.21 147.66 315.17 147.4 315.1C147.15 315.03 146.93 314.97 146.8 314.94L145.62 314.71L145.68 314.32L146.4 314.37L147.42 309.23L146.66 308.98L146.72 308.58L149.16 309.05L149.1 309.45L148.3 309.37L147.89 311.56L148.61 311.79ZM147.46 314.7C147.72 314.77 147.94 314.83 148.11 314.87C148.55 314.95 148.87 314.94 149.14 314.78C149.41 314.63 149.58 314.35 149.66 313.87C149.73 313.43 149.7 313.05 149.5 312.77C149.3 312.48 149.02 312.32 148.59 312.2C148.15 312.13 147.85 312.05 147.71 312.06L147.22 314.59L147.46 314.7Z" fill="#f6950099" fill-opacity="1.000000" fill-rule="nonzero"/>
		<path id="Vector" d="M142.69 313.65L144.13 313.95L144.8 312.29L145.36 312.44L144.69 314.6L139.6 313.38L140.02 311.15L140.53 311.28L140.37 313.08L141.78 313.46L142.99 308.27L141.84 307.92L141.95 307.53L145.1 308.28L144.99 308.67L143.89 308.51L142.69 313.65Z" fill="#f6950099" fill-opacity="1.000000" fill-rule="nonzero"/>
		<path id="Vector" d="M137.28 306.6C137.64 306.97 137.84 307.44 137.93 307.97C138.02 308.5 137.95 309.08 137.78 309.72C137.62 310.32 137.3 310.83 136.93 311.19C136.54 311.59 136.07 311.83 135.57 311.97C135.03 312.1 134.53 312.06 133.98 311.92C133.55 311.8 133.1 311.59 132.54 311.3L132.29 311.19L132.81 309.76L133.37 309.91L133.26 310.99C133.33 311.1 133.44 311.17 133.6 311.26C133.76 311.35 134.01 311.46 134.26 311.53C134.61 311.62 134.93 311.62 135.28 311.53C135.58 311.43 135.92 311.19 136.15 310.84C136.42 310.5 136.63 310.06 136.77 309.54C136.91 309.03 136.99 308.54 136.98 308.08C136.97 307.62 136.84 307.22 136.66 306.89C136.47 306.57 136.16 306.35 135.73 306.23C135.43 306.15 135.22 306.1 135.03 306.09C134.85 306.09 134.7 306.14 134.59 306.2L134.04 306.88L133.55 306.66L134.07 305.56C134.2 305.59 134.39 305.6 134.61 305.61C134.84 305.63 135.02 305.63 135.2 305.63C135.39 305.64 135.64 305.7 135.9 305.77C136.46 305.92 136.94 306.19 137.28 306.6Z" fill="#f6950099" fill-opacity="1.000000" fill-rule="nonzero"/>
		<path id="Vector" d="M128.97 310.21L129.12 309.83L129.94 310.01L131.33 306.02L130.35 306.77L127.1 308.79L127.05 309L127.74 309.32L127.59 309.7L125.41 308.93L125.56 308.56L126.21 308.69L127.91 303.72L127.26 303.41L127.4 303.04L129.63 303.82L129.48 304.19L128.74 304.04L127.34 308.07L128.27 307.35L131.62 305.31L131.7 305.01L130.96 304.68L131.11 304.3L133.33 305.08L133.18 305.46L132.49 305.32L130.79 310.28L131.4 310.58L131.25 310.95L128.97 310.21Z" fill="#f6950099" fill-opacity="1.000000" fill-rule="nonzero"/>
		<path id="Vector" d="M120.37 307.03L121.11 304.93L121.66 305.12L121.25 306.81L122.94 307.53L124.91 302.6L123.56 301.96L123.71 301.59L126.79 302.78L126.64 303.15L125.74 302.91L123.84 307.78L124.64 308.22L124.49 308.59L120.37 307.03Z" fill="#f6950099" fill-opacity="1.000000" fill-rule="nonzero"/>
		<path id="Vector" d="M119.22 305.99L119.77 306.36L119.62 306.74L117.53 305.81L117.67 305.43L118.36 305.62L119.28 303.57L116.56 302.38L115.65 304.43L116.23 304.82L116.09 305.19L114.04 304.28L114.18 303.9L114.82 304.07L116.94 299.27L116.34 298.93L116.49 298.55L118.54 299.47L118.39 299.84L117.72 299.62L116.7 301.87L119.41 303.05L120.43 300.8L119.79 300.45L119.94 300.07L122.07 301.01L121.93 301.39L121.29 301.17L119.22 305.99Z" fill="#f6950099" fill-opacity="1.000000" fill-rule="nonzero"/>
		<path id="Vector" d="M111.24 302.88L110.43 302.48L111.2 296.35L110.77 296.06L110.96 295.69L112.95 296.68L112.76 297.05L112.08 296.82L111.88 298.1L114.07 299.19L114.97 298.24L114.34 297.84L114.53 297.48L116.31 298.37L116.12 298.73L115.62 298.55L111.24 302.88ZM111.35 301.44L111.2 302.18L111.72 301.59L113.7 299.55L111.8 298.58L111.35 301.44Z" fill="#f6950099" fill-opacity="1.000000" fill-rule="nonzero"/>
		<path id="Vector" d="M107.95 296.68C108.43 296.07 108.87 295.64 109.26 295.38C109.48 295.25 109.63 295.2 109.82 295.16C110 295.16 110.18 295.21 110.38 295.31C110.62 295.42 110.77 295.55 110.89 295.63L110.63 296.25C110.51 296.17 110.35 296.08 110.08 295.92C110 295.85 109.92 295.83 109.82 295.85C109.72 295.87 109.63 295.89 109.52 295.95C108.82 296.31 107.98 297.42 106.95 299.21L106.6 299.81L107.41 300.39L107.22 300.75L102.99 298.38L103.18 298.01L103.93 298.31L106.49 293.71L105.79 293.25L105.98 292.89L108.26 294.14L108.07 294.51L107.29 294.16L104.74 298.71L106.22 299.52L106.59 298.84C106.99 298.03 107.46 297.28 107.95 296.68Z" fill="#f6950099" fill-opacity="1.000000" fill-rule="nonzero"/>
		<path id="Vector" d="M95.3 293.66L95.54 293.3L96.27 293.64L99.07 289.2L98.46 288.72L98.7 288.37L100.77 289.7L100.54 290.05L99.84 289.73L97.05 294.17L97.65 294.65L97.42 295L95.3 293.66ZM101.08 294.38C100.49 293.99 100.15 293.58 99.99 293.12C99.84 292.67 99.92 292.18 100.24 291.67C100.57 291.12 101.02 290.83 101.55 290.74C102.08 290.65 102.63 290.8 103.23 291.14C103.31 291.21 103.39 291.23 103.47 291.3C103.54 291.36 103.61 291.43 103.7 291.45C103.96 291.66 104.2 291.82 104.39 291.96L105.37 292.59L105.14 292.94L104.49 292.63L101.69 297.07L102.21 297.53L101.98 297.88L99.93 296.6L100.17 296.24L100.95 296.59L101.98 294.94L101.08 294.38ZM103.49 291.9C103.41 291.83 103.3 291.76 103.09 291.66C102.7 291.41 102.31 291.31 101.97 291.4C101.62 291.49 101.33 291.74 101.03 292.16C100.79 292.55 100.7 292.9 100.79 293.24C100.88 293.59 101.12 293.88 101.51 294.13L102.26 294.6L103.77 292.21C103.68 292.04 103.6 291.98 103.49 291.9Z" fill="#f6950099" fill-opacity="1.000000" fill-rule="nonzero"/>
		<path id="Vector" d="M92.4 290.95L92.87 291.44L92.63 291.79L90.8 290.43L91.03 290.08L91.67 290.43L93.03 288.59L90.65 286.85L89.29 288.69L89.75 289.18L89.52 289.54L87.73 288.18L87.96 287.83L88.57 288.13L91.67 283.91L91.19 283.46L91.43 283.11L93.26 284.48L93.03 284.83L92.44 284.49L90.99 286.44L93.37 288.18L94.82 286.23L94.26 285.71L94.5 285.36L96.38 286.74L96.15 287.09L95.55 286.74L92.4 290.95Z" fill="#f6950099" fill-opacity="1.000000" fill-rule="nonzero"/>
		<path id="Vector" d="M85.26 286.24L84.55 285.63L86.62 279.81L86.27 279.39L86.53 279.09L88.28 280.48L88 280.82L87.42 280.43L86.95 281.64L88.87 283.21L89.98 282.5L89.48 281.99L89.74 281.7L91.29 282.94L91.03 283.24L90.55 282.97L85.26 286.24ZM85.72 284.89L85.44 285.59L86.07 285.12L88.42 283.55L86.76 282.19L85.72 284.89Z" fill="#f6950099" fill-opacity="1.000000" fill-rule="nonzero"/>
		<path id="Vector" d="M80.26 281.27L80.85 281.98L80.59 282.28L78.93 280.73L80.63 277.14L81.16 276.19L80.26 276.82L76.84 278.79L75.22 277.3L75.48 277L76.24 277.58L79.32 273.3L78.83 272.72L79.09 272.42L80.85 274.08L80.59 274.38L79.97 273.94L77.7 276.96L76.71 278.25L77.79 277.62L81.84 275.36L82.24 275.74L80.51 279.64L79.79 281.14L81 280.04L83.84 277.5L83.27 276.89L83.53 276.59L85.15 278.08L84.89 278.38L84.32 277.95L80.26 281.27Z" fill="#f6950099" fill-opacity="1.000000" fill-rule="nonzero"/>
		<path id="Vector" d="M72.9 274.98L72.25 274.3L75.01 268.8L74.72 268.35L75.03 268.07L76.57 269.68L76.26 269.96L75.69 269.53L75.06 270.69L76.79 272.44L77.96 271.84L77.52 271.26L77.83 270.98L79.24 272.41L78.93 272.7L78.5 272.4L72.9 274.98ZM73.52 273.68L73.16 274.36L73.85 274L76.4 272.71L74.89 271.15L73.52 273.68Z" fill="#f6950099" fill-opacity="1.000000" fill-rule="nonzero"/>
		<path id="Vector" d="M70.1 271.2L70.46 271.76L70.15 272.04L69.41 271.2C69.26 271.07 69.13 270.9 68.98 270.76C68.76 270.57 68.55 270.33 68.37 270.14C67.84 269.54 67.57 269.01 67.55 268.54C67.54 268.08 67.78 267.69 68.22 267.26C68.57 266.98 68.91 266.75 69.28 266.71C69.67 266.63 70.07 266.69 70.44 266.84C70.82 266.99 71.16 267.26 71.47 267.62C71.58 267.74 71.69 267.86 71.79 267.98C71.9 268.1 71.96 268.21 72 268.22L73.39 266.99L72.67 266.06L72.98 265.78L74.82 267.83L74.51 268.11L73.99 267.65L70.1 271.2ZM71.16 267.95C70.87 267.64 70.51 267.46 70.15 267.41C69.8 267.36 69.33 267.55 68.9 267.99C68.54 268.3 68.36 268.62 68.36 268.95C68.37 269.27 68.55 269.64 68.86 270C68.97 270.12 69.12 270.25 69.27 270.38C69.34 270.45 69.41 270.51 69.45 270.57L71.67 268.59C71.57 268.47 71.4 268.24 71.16 267.95Z" fill="#f6950099" fill-opacity="1.000000" fill-rule="nonzero"/>
		<path id="Vector" d="M70.24 263.16C70.33 263.69 70.24 264.17 69.98 264.65C69.75 265.14 69.36 265.59 68.88 266.01C68.4 266.43 67.88 266.66 67.35 266.75C66.82 266.83 66.27 266.82 65.78 266.6C65.28 266.42 64.85 266.12 64.47 265.65C64.2 265.31 63.91 264.86 63.63 264.33L63.52 264.07L64.73 263.15L65.08 263.57L64.4 264.39C64.42 264.49 64.43 264.63 64.51 264.84C64.6 265 64.73 265.22 64.9 265.45C65.14 265.74 65.42 265.91 65.76 266C66.1 266.09 66.48 266.05 66.88 265.93C67.28 265.81 67.71 265.56 68.13 265.21C68.54 264.86 68.86 264.53 69.1 264.14C69.35 263.75 69.49 263.37 69.5 263.01C69.5 262.64 69.37 262.28 69.14 261.95C68.97 261.72 68.78 261.57 68.63 261.44C68.48 261.31 68.35 261.28 68.21 261.29L67.36 261.56L67.07 261.12L68.1 260.52C68.17 260.59 68.32 260.72 68.51 260.86C68.7 261 68.86 261.09 69.01 261.22C69.16 261.35 69.3 261.53 69.52 261.73C69.95 262.16 70.19 262.64 70.24 263.16Z" fill="#f6950099" fill-opacity="1.000000" fill-rule="nonzero"/>
		<path id="Vector" d="M56.5 254.8L56.84 254.56L57.36 255.21L60.88 252.85L59.64 252.84L55.84 252.46L55.67 252.6L55.99 253.28L55.65 253.51L54.38 251.57L54.72 251.33L55.19 251.83L59.55 248.91L59.21 248.27L59.55 248.04L60.86 250L60.53 250.23L60.04 249.64L56.46 252.03L57.61 252.02L61.5 252.42L61.77 252.26L61.41 251.57L61.74 251.33L63.06 253.29L62.72 253.52L62.27 252.99L57.9 255.91L58.19 256.53L57.86 256.76L56.5 254.8Z" fill="#f6950099" fill-opacity="1.000000" fill-rule="nonzero"/>
		<path id="Vector" d="M53.52 250C53.34 249.82 53.2 249.64 53.05 249.51C52.9 249.38 52.85 249.23 52.75 249.11C52.4 248.51 52.22 248 52.2 247.54C52.19 247.08 52.41 246.77 52.84 246.52C53.22 246.3 53.61 246.22 54 246.32C54.38 246.42 54.69 246.64 54.98 246.95C54.73 246.52 54.62 246.07 54.72 245.69C54.82 245.3 55.04 244.99 55.38 244.76C55.88 244.44 56.41 244.35 56.87 244.52C57.33 244.69 57.77 245.08 58.22 245.8C58.38 246.07 58.54 246.34 58.61 246.59C58.68 246.84 58.76 247.05 58.81 247.2C58.86 247.35 58.88 247.45 58.87 247.49L57.56 248.1L57.34 247.72L58.14 246.97C58.13 246.65 58 246.29 57.74 245.9C57.55 245.57 57.28 245.36 57.02 245.34C56.75 245.31 56.36 245.39 55.98 245.61C55.7 245.81 55.5 246.03 55.37 246.32C55.29 246.62 55.37 247.01 55.64 247.4L55.96 247.9L55.57 248.16L55.32 247.73C55.19 247.51 55.05 247.38 54.85 247.24C54.66 247.1 54.45 247.04 54.22 247.02C54 247.01 53.75 247.08 53.48 247.24C53.15 247.42 53 247.66 52.93 247.92C52.9 248.18 52.96 248.48 53.15 248.8C53.28 249.02 53.41 249.19 53.57 249.28C53.72 249.41 53.85 249.45 53.95 249.43L54.7 249.17L55 249.62L53.93 250.34C53.84 250.32 53.74 250.2 53.52 250Z" fill="#f6950099" fill-opacity="1.000000" fill-rule="nonzero"/>
		<path id="Vector" d="M50.21 243.51L50.44 244.17L50.07 244.35L49.52 243.33C49.43 243.17 49.3 242.95 49.13 242.72C48.96 242.49 48.87 242.33 48.81 242.22C48.44 241.53 48.31 240.99 48.33 240.58C48.39 240.18 48.61 239.87 49.04 239.62C49.41 239.45 49.76 239.35 50.1 239.45C50.46 239.5 50.76 239.72 51.01 240.01C50.77 239.53 50.66 239.09 50.76 238.7C50.86 238.32 51.08 238.01 51.51 237.8C51.99 237.52 52.51 237.47 53 237.7C53.51 237.88 53.97 238.37 54.43 239.23C54.52 239.39 54.61 239.6 54.7 239.76C54.88 240.13 54.99 240.39 55.06 240.45L55.59 241.42L55.22 241.6L54.82 241.03L50.21 243.51ZM51.56 241.21L51.35 240.79C51.16 240.46 50.95 240.22 50.65 240.14C50.35 240.06 50.06 240.12 49.69 240.3C49.36 240.49 49.12 240.7 49.05 240.96C48.99 241.21 49.08 241.56 49.28 241.98C49.38 242.14 49.5 242.36 49.6 242.52L49.69 242.69L51.78 241.59C51.78 241.59 51.68 241.43 51.56 241.21ZM54.1 239.42C53.82 238.93 53.54 238.62 53.21 238.49C52.87 238.35 52.54 238.4 52.16 238.62C51.78 238.84 51.54 239.05 51.5 239.36C51.46 239.67 51.51 240.01 51.76 240.44C52.05 240.93 52.19 241.25 52.28 241.41L54.49 240.21C54.43 240.1 54.31 239.84 54.1 239.42Z" fill="#f6950099" fill-opacity="1.000000" fill-rule="nonzero"/>
		<path id="Vector" d="M46.37 237.25L45.96 236.41L50.29 232.06L50.15 231.56L50.52 231.39L51.49 233.39L51.13 233.57L50.74 232.96L49.77 233.85L50.83 236.06L52.12 235.85L51.9 235.15L52.26 234.98L53.12 236.76L52.75 236.94L52.45 236.5L46.37 237.25ZM47.35 236.18L46.75 236.71L47.53 236.55L50.34 236.16L49.39 234.21L47.35 236.18Z" fill="#f6950099" fill-opacity="1.000000" fill-rule="nonzero"/>
		<path id="Vector" d="M49.7 230.16C49.62 230.64 49.39 231.13 49.06 231.5C48.73 231.87 48.22 232.24 47.65 232.5C47.07 232.76 46.5 232.83 45.97 232.78C45.43 232.73 44.93 232.55 44.5 232.25C44.08 231.95 43.74 231.5 43.51 230.98C43.35 230.57 43.2 230.07 43.08 229.49L43.02 229.19L44.45 228.66L44.68 229.18L43.78 229.81C43.75 229.89 43.75 230.08 43.79 230.27C43.83 230.47 43.9 230.71 44.02 230.97C44.16 231.29 44.36 231.57 44.68 231.75C45 231.93 45.34 232.02 45.76 231.99C46.18 231.97 46.67 231.87 47.19 231.64C47.65 231.44 48.09 231.19 48.45 230.88C48.81 230.56 49.03 230.25 49.13 229.87C49.28 229.49 49.24 229.12 49.07 228.75C48.95 228.49 48.83 228.27 48.72 228.15C48.62 228.03 48.51 227.91 48.34 227.86L47.42 227.85L47.28 227.35L48.46 227.07C48.52 227.18 48.62 227.34 48.75 227.52C48.89 227.69 49.04 227.82 49.13 227.98C49.23 228.15 49.35 228.36 49.47 228.62C49.69 229.15 49.78 229.67 49.7 230.16Z" fill="#f6950099" fill-opacity="1.000000" fill-rule="nonzero"/>
		<path id="Vector" d="M42.4 224.67C41.92 224.58 41.47 224.37 41.13 224.1C40.79 223.82 40.53 223.43 40.38 222.98C40.19 222.47 40.13 221.99 40.26 221.52C40.39 221.05 40.59 220.64 40.95 220.33C41.32 219.97 41.75 219.72 42.32 219.5C42.98 219.26 43.55 219.19 44.1 219.2C44.63 219.25 45.14 219.43 45.52 219.72C45.9 220 46.21 220.41 46.4 220.87C46.59 221.38 46.63 221.9 46.55 222.38C46.47 222.86 46.22 223.26 45.85 223.62C45.48 223.98 45.03 224.27 44.47 224.49L44.95 225.76L47.25 224.91L47.08 224.17L47.48 224.05L48.27 226.24L47.87 226.36L47.54 225.72L42.64 227.53L42.78 228.21L42.38 228.33L41.58 226.19L41.98 226.07L42.31 226.71L44.46 225.91L43.97 224.63C43.43 224.76 42.87 224.79 42.4 224.67ZM41.89 223.84C42.45 223.99 43.16 223.9 44.03 223.54C44.8 223.24 45.36 222.89 45.71 222.43C46.06 221.97 46.14 221.49 45.96 220.98C45.77 220.47 45.39 220.19 44.88 220.05C44.36 219.91 43.64 220.04 42.78 220.36C42.01 220.66 41.45 221.01 41.11 221.43C40.76 221.88 40.69 222.32 40.87 222.83C41 223.37 41.37 223.7 41.89 223.84Z" fill="#f6950099" fill-opacity="1.000000" fill-rule="nonzero"/>
		<path id="Vector" d="M41.59 215.18C41.81 214.87 42.1 214.49 42.49 214.04C42.76 213.74 42.95 213.52 43.1 213.33C43.23 213.18 43.26 213.05 43.29 212.97L43.28 212.64L43.68 212.52L44.01 213.53C44.07 213.64 43.97 213.84 43.83 214.03C43.67 214.26 43.41 214.56 43.04 214.92C42.64 215.37 42.33 215.69 42.12 215.96C41.91 216.22 41.85 216.44 41.9 216.59L42.04 217.09L44.35 216.37L44.23 215.61L44.63 215.49L45.33 217.69L44.93 217.81L44.64 217.18L39.63 218.74L39.73 219.4L39.33 219.53L38.66 217.37L39.06 217.25L39.35 217.88L41.66 217.17L41.43 216.46L38.6 215.57L38.72 216.29L38.32 216.41L37.71 214.41L38.11 214.29L38.41 214.87L41.31 215.88C41.26 215.73 41.38 215.44 41.59 215.18Z" fill="#f6950099" fill-opacity="1.000000" fill-rule="nonzero"/>
		<path id="Vector" d="M42.94 211.18C42.77 211.63 42.48 212.02 42.08 212.32C41.68 212.63 41.15 212.9 40.55 213.06C39.92 213.21 39.36 213.24 38.83 213.15C38.3 213.05 37.87 212.8 37.5 212.47C37.13 212.14 36.87 211.71 36.74 211.17C36.51 210.32 36.61 209.62 37.05 209C37.48 208.43 38.14 208.01 39.08 207.75C39.72 207.6 40.32 207.58 40.85 207.68C41.37 207.77 41.85 208.04 42.22 208.37C42.59 208.7 42.85 209.13 42.98 209.67C43.11 210.21 43.11 210.72 42.94 211.18ZM38.14 212.14C38.68 212.33 39.38 212.29 40.27 212.07C41.1 211.88 41.7 211.53 42.08 211.13C42.46 210.73 42.6 210.21 42.46 209.71C42.33 209.17 41.96 208.85 41.41 208.65C40.87 208.46 40.12 208.49 39.24 208.71C38.41 208.9 37.81 209.25 37.43 209.65C37.04 210.05 36.92 210.53 37.05 211.07C37.28 211.59 37.63 211.96 38.14 212.14Z" fill="#f6950099" fill-opacity="1.000000" fill-rule="nonzero"/>
		<path id="Vector" d="M36.25 206.86L36.29 207.56L35.9 207.64L35.65 206.51C35.61 206.32 35.54 206.07 35.47 205.82C35.4 205.57 35.31 205.37 35.31 205.23C35.15 204.45 35.16 203.9 35.3 203.53C35.45 203.15 35.79 202.92 36.23 202.81C36.62 202.73 36.97 202.78 37.3 202.92C37.62 203.09 37.88 203.35 38.05 203.71C37.92 203.17 37.94 202.77 38.13 202.4C38.32 202.04 38.66 201.81 39.09 201.74C39.63 201.61 40.15 201.71 40.57 202.05C40.99 202.34 41.32 202.98 41.5 203.86C41.54 204.05 41.58 204.25 41.58 204.43C41.65 204.86 41.72 205.11 41.74 205.21L42 206.29L41.61 206.37L41.38 205.71L36.25 206.86ZM38.16 205.03L38.05 204.59C37.97 204.2 37.81 203.93 37.54 203.76C37.3 203.6 36.95 203.56 36.55 203.68C36.16 203.76 35.89 203.91 35.78 204.16C35.66 204.41 35.62 204.76 35.71 205.25C35.75 205.44 35.79 205.63 35.88 205.84L35.93 205.99L38.22 205.5C38.24 205.42 38.19 205.27 38.16 205.03ZM41.06 203.97C40.93 203.43 40.75 203.06 40.45 202.84C40.18 202.63 39.83 202.58 39.38 202.69C38.95 202.76 38.67 202.96 38.56 203.21C38.4 203.44 38.38 203.85 38.48 204.33C38.61 204.87 38.69 205.26 38.75 205.41L41.19 204.87C41.22 204.75 41.16 204.45 41.06 203.97Z" fill="#f6950099" fill-opacity="1.000000" fill-rule="nonzero"/>
		<path id="Vector" d="M33.33 193.91L33.77 193.84L33.99 194.55L39.17 193.73L39.15 192.94L39.58 192.88L39.96 195.23L39.53 195.29L39.35 194.6L34.17 195.42L34.6 198.11L39.82 197.3L39.8 196.51L40.23 196.45L40.57 198.79L40.14 198.85L39.94 198.21L34.76 199.02L34.75 199.75L34.32 199.82L33.33 193.91Z" fill="#f6950099" fill-opacity="1.000000" fill-rule="nonzero"/>
		<path id="Vector" d="M39.03 191.17C38.83 191.57 38.46 191.93 38.02 192.18C37.59 192.43 37.04 192.61 36.38 192.66C35.72 192.71 35.14 192.65 34.64 192.47C34.14 192.29 33.71 191.99 33.41 191.59C33.1 191.19 32.9 190.72 32.86 190.2C32.77 189.35 32.96 188.62 33.46 188.12C33.97 187.61 34.69 187.3 35.68 187.19C36.34 187.14 36.92 187.21 37.42 187.39C37.93 187.57 38.35 187.86 38.7 188.28C39 188.68 39.2 189.15 39.25 189.66C39.31 190.28 39.23 190.76 39.03 191.17ZM34.14 191.42C34.66 191.7 35.34 191.74 36.28 191.67C37.13 191.58 37.73 191.37 38.2 190.99C38.66 190.65 38.87 190.21 38.8 189.64C38.75 189.12 38.45 188.72 37.92 188.44C37.4 188.16 36.68 188.1 35.79 188.19C34.93 188.28 34.29 188.47 33.86 188.86C33.4 189.2 33.23 189.66 33.31 190.23C33.34 190.79 33.65 191.19 34.14 191.42Z" fill="#f6950099" fill-opacity="1.000000" fill-rule="nonzero"/>
		<path id="Vector" d="M36.37 184.49C37.13 184.55 37.74 184.67 38.14 184.87C38.35 184.97 38.5 185.1 38.6 185.22C38.7 185.38 38.75 185.54 38.79 185.73C38.8 186.01 38.8 186.19 38.77 186.32L38.1 186.42C38.09 186.28 38.09 186.1 38.09 185.77C38.07 185.68 38.05 185.58 37.97 185.51C37.9 185.45 37.82 185.38 37.71 185.3C37.02 184.94 35.64 184.8 33.58 184.93L32.93 184.99L32.9 185.94L32.48 185.97L32.17 181.11L32.59 181.09L32.75 181.86L37.99 181.52L38.02 180.7L38.44 180.68L38.62 183.25L38.2 183.28L38.07 182.42L32.85 182.72L32.93 184.44L33.68 184.41C34.73 184.41 35.6 184.42 36.37 184.49Z" fill="#f6950099" fill-opacity="1.000000" fill-rule="nonzero"/>
		<path id="Vector" d="M32.68 179.55L32.59 180.26L32.17 180.28L32.08 175.99L33.4 175.84L33.42 176.3L32.62 176.55L32.6 178.66L34.96 178.6L34.92 177.21L34.21 177.11L34.19 176.65L36.13 176.62L36.15 177.08L35.42 177.21L35.41 178.63L37.91 178.56L37.76 176.18L36.68 175.76L36.82 175.24L38.28 175.45L38.36 180.11L37.94 180.13L37.86 179.42L32.68 179.55Z" fill="#f6950099" fill-opacity="1.000000" fill-rule="nonzero"/>
		<path id="Vector" d="M32.59 172.55L32.62 173.98L34.36 174.31L34.35 174.86L32.11 174.67L32.23 169.42L34.49 169.38L34.48 169.93L32.71 170.19L32.64 171.64L37.95 171.73L38.04 170.52L38.45 170.54L38.37 173.73L37.97 173.71L37.9 172.59L32.59 172.55Z" fill="#f6950099" fill-opacity="1.000000" fill-rule="nonzero"/>
		<path id="Vector" d="M35.93 166.05L35.92 166.46C36.01 166.62 36.16 166.75 36.43 166.92C36.67 167.08 36.99 167.25 37.39 167.45C37.8 167.65 38.08 167.82 38.28 167.92C38.48 168.02 38.59 168.14 38.56 168.23L38.49 169.35L38.08 169.34L38.03 169C38.01 168.9 37.94 168.84 37.84 168.72C37.68 168.63 37.48 168.49 37.18 168.27C36.81 168.08 36.55 167.87 36.31 167.71C36.08 167.56 35.94 167.39 35.85 167.22C35.7 167.6 35.49 167.86 35.16 168.09C34.83 168.28 34.48 168.37 34.03 168.34C33.36 168.3 32.91 168.09 32.66 167.65C32.41 167.22 32.33 166.65 32.39 165.93C32.39 165.74 32.43 165.57 32.46 165.3C32.49 165.04 32.54 164.82 32.54 164.68L32.63 163.47L33.04 163.49L33.08 164.19L38.31 164.53L38.44 163.74L38.84 163.75L38.68 166.24L38.28 166.22L38.27 165.39L36.01 165.25L35.93 166.05ZM32.88 165.28C32.81 165.54 32.8 165.76 32.79 165.94C32.76 166.4 32.81 166.73 33.02 166.97C33.24 167.21 33.52 167.33 34.02 167.37C34.47 167.4 34.81 167.31 35.1 167.11C35.38 166.91 35.47 166.57 35.54 166.13C35.57 165.68 35.6 165.41 35.56 165.22L32.99 165.03L32.88 165.28Z" fill="#f6950099" fill-opacity="1.000000" fill-rule="nonzero"/>
		<path id="Vector" d="M33.31 160.44L33.2 161.88L34.91 162.33L34.86 162.87L32.62 162.5L33.19 157.28L35.44 157.43L35.39 157.96L33.63 158.04L33.42 159.5L38.68 160.09L38.9 158.91L39.3 158.97L38.95 162.18L38.55 162.12L38.57 161.02L33.31 160.44Z" fill="#f6950099" fill-opacity="1.000000" fill-rule="nonzero"/>
		<path id="Vector" d="M39.67 154.15C39.34 154.52 38.9 154.82 38.4 154.96C37.9 155.1 37.3 155.12 36.69 155.01C36.08 154.89 35.53 154.7 35.12 154.36C34.71 154.02 34.36 153.6 34.17 153.09C33.99 152.58 33.94 152.07 34.05 151.5C34.12 151.06 34.26 150.54 34.49 150.01L34.6 149.77L36.08 150.07L35.98 150.64L34.87 150.66C34.8 150.74 34.73 150.85 34.63 151.06C34.54 151.22 34.47 151.47 34.44 151.74C34.39 152.1 34.44 152.43 34.59 152.74C34.73 153.06 34.99 153.31 35.38 153.55C35.73 153.78 36.2 153.91 36.77 154.02C37.3 154.11 37.76 154.1 38.23 154.04C38.66 153.97 39.08 153.81 39.37 153.57C39.66 153.32 39.84 153 39.91 152.57C39.95 152.25 39.97 152.03 39.96 151.89C39.95 151.75 39.9 151.6 39.8 151.43L39.06 150.96L39.2 150.44L40.33 150.84C40.3 150.97 40.35 151.12 40.38 151.36C40.42 151.55 40.4 151.78 40.44 151.97C40.48 152.17 40.42 152.38 40.39 152.69C40.24 153.25 40.01 153.74 39.67 154.15Z" fill="#f6950099" fill-opacity="1.000000" fill-rule="nonzero"/>
		<path id="Vector" d="M35.06 146.35L35.46 146.41L35.38 147.22L39.51 148.09L38.64 147.22L36.23 144.23L36.01 144.17L35.77 144.89L35.38 144.83L35.84 142.57L36.24 142.63L36.2 143.31L41.32 144.4L41.55 143.73L41.93 143.83L41.45 146.14L41.07 146.03L41.13 145.27L36.92 144.37L37.76 145.19L40.2 148.24L40.5 148.32L40.75 147.56L41.15 147.62L40.67 149.92L40.27 149.86L40.33 149.14L35.2 148.04L34.99 148.67L34.59 148.61L35.06 146.35Z" fill="#f6950099" fill-opacity="1.000000" fill-rule="nonzero"/>
		<path id="Vector" d="M37.12 137.45L39.29 137.94L39.14 138.49L37.44 138.31L36.92 140.1L42.08 141.39L42.55 140L42.93 140.11L42.12 143.29L41.74 143.18L41.89 142.26L36.82 140.99L36.5 141.83L36.12 141.72L37.12 137.45Z" fill="#f6950099" fill-opacity="1.000000" fill-rule="nonzero"/>
		<path id="Vector" d="M38.02 136.17L37.72 136.78L37.33 136.68L38.01 134.47L38.4 134.58L38.3 135.28L40.46 135.96L41.32 133.11L39.16 132.44L38.85 133.05L38.47 132.94L39.14 130.78L39.53 130.88L39.44 131.55L44.45 133.08L44.71 132.46L45.09 132.56L44.42 134.72L44.03 134.62L44.18 133.92L41.84 133.2L40.99 136.05L43.32 136.77L43.59 136.1L43.98 136.21L43.29 138.41L42.91 138.31L43.04 137.66L38.02 136.17Z" fill="#f6950099" fill-opacity="1.000000" fill-rule="nonzero"/>
		<path id="Vector" d="M40.06 127.86L40.39 126.98L46.54 126.98L46.81 126.5L47.18 126.65L46.44 128.74L46.06 128.6L46.2 127.9L44.88 127.87L44.08 130.17L45.11 130.96L45.42 130.31L45.79 130.45L45.15 132.34L44.77 132.2L44.87 131.67L40.06 127.86ZM41.53 127.84L40.77 127.77L41.43 128.23L43.68 129.93L44.41 127.92L41.53 127.84Z" fill="#f6950099" fill-opacity="1.000000" fill-rule="nonzero"/>
		<path id="Vector" d="M45.87 123.82C46.54 124.23 47.04 124.59 47.32 124.94C47.45 125.11 47.54 125.32 47.59 125.47C47.63 125.66 47.58 125.83 47.53 126.01C47.42 126.25 47.33 126.41 47.26 126.53L46.63 126.31C46.7 126.2 46.76 125.98 46.87 125.74C46.9 125.65 46.93 125.52 46.9 125.47C46.88 125.37 46.82 125.26 46.75 125.15C46.28 124.52 45.1 123.79 43.19 123.05L42.57 122.79L42.11 123.63L41.74 123.49L43.54 118.97L43.92 119.11L43.71 119.89L48.56 121.83L48.94 121.1L49.31 121.25L48.35 123.65L47.98 123.51L48.2 122.65L43.35 120.71L42.7 122.28L43.41 122.56C44.38 123.05 45.2 123.41 45.87 123.82Z" fill="#f6950099" fill-opacity="1.000000" fill-rule="nonzero"/>
		<path id="Vector" d="M47.23 116.7C47.53 116.09 47.87 115.67 48.34 115.48C48.8 115.28 49.25 115.31 49.79 115.55C50.35 115.83 50.75 116.22 50.89 116.76C51.03 117.26 50.96 117.83 50.66 118.44C50.64 118.53 50.57 118.6 50.55 118.69C50.49 118.76 50.46 118.85 50.39 118.97C50.22 119.24 50.11 119.49 50 119.73L49.54 120.76L49.18 120.57L49.4 119.9L44.63 117.65L44.25 118.24L43.88 118.05L44.88 115.88L45.24 116.07L44.98 116.87L46.73 117.71L47.23 116.7ZM47.23 110.87L47.59 111.06L47.34 111.81L52.07 114.05L52.48 113.38L52.84 113.56L51.78 115.81L51.42 115.62L51.67 114.86L46.94 112.63L46.53 113.3L46.17 113.11L47.23 110.87ZM50.01 118.82C50.08 118.75 50.12 118.57 50.21 118.41C50.41 118.01 50.43 117.6 50.3 117.24C50.16 116.89 49.87 116.62 49.42 116.41C49.01 116.21 48.6 116.19 48.3 116.3C47.99 116.44 47.74 116.69 47.53 117.1L47.19 117.88L49.76 119.07C49.87 119.01 49.95 118.89 50.01 118.82Z" fill="#f6950099" fill-opacity="1.000000" fill-rule="nonzero"/>
		<path id="Vector" d="M49.51 107.67L49.09 108.2L48.73 108.01L49.86 106.02L50.22 106.21L49.95 106.87L51.96 107.96L53.39 105.36L51.39 104.27L50.97 104.8L50.61 104.61L51.68 102.65L52.04 102.84L51.83 103.47L56.42 106.03L56.84 105.5L57.2 105.69L56.12 107.69L55.75 107.5L56.02 106.84L53.86 105.66L52.43 108.26L54.59 109.44L55.03 108.82L55.39 109.01L54.25 111.05L53.89 110.86L54.15 110.24L49.51 107.67Z" fill="#f6950099" fill-opacity="1.000000" fill-rule="nonzero"/>
		<path id="Vector" d="M53.31 100.01L53.79 99.22L59.82 100.56L60.16 100.14L60.51 100.38L59.32 102.26L58.96 102.03L59.28 101.38L57.99 101.03L56.7 103.12L57.53 104.12L58 103.56L58.35 103.79L57.3 105.49L56.95 105.25L57.18 104.76L53.31 100.01ZM54.7 100.29L53.97 100.09L54.51 100.65L56.37 102.8L57.5 100.99L54.7 100.29Z" fill="#f6950099" fill-opacity="1.000000" fill-rule="nonzero"/>
		<path id="Vector" d="M57.62 94.37L57.02 95.08L56.66 94.85L57.98 93.04L61.73 94.28L62.77 94.69L62.03 93.85L59.62 90.68L60.93 88.87L61.28 89.11L60.84 89.9L65.49 92.39L66.01 91.84L66.36 92.07L64.91 94.07L64.56 93.84L64.92 93.16L61.62 91.26L60.18 90.46L60.97 91.46L63.74 95.18L63.43 95.65L59.35 94.42L57.75 93.9L58.98 94.96L61.85 97.43L62.39 96.79L62.74 97.03L61.48 98.8L61.13 98.57L61.49 97.93L57.62 94.37Z" fill="#f6950099" fill-opacity="1.000000" fill-rule="nonzero"/>
		<path id="Vector" d="M62.9 86.33L63.46 85.6L69.3 87.63L69.67 87.27L70.01 87.54L68.62 89.28L68.28 89.01L68.67 88.42L67.46 87.96L65.93 89.89L66.66 90.96L67.16 90.45L67.5 90.73L66.26 92.28L65.92 92L66.19 91.52L62.9 86.33ZM64.26 86.74L63.55 86.45L64.02 87.09L65.6 89.44L66.92 87.77L64.26 86.74Z" fill="#f6950099" fill-opacity="1.000000" fill-rule="nonzero"/>
		<path id="Vector" d="M66.3 83.06L65.77 83.47L65.43 83.19L66.17 82.34C66.3 82.19 66.43 82.04 66.52 81.88C66.72 81.66 66.87 81.42 67.07 81.2C67.6 80.61 68.11 80.24 68.54 80.17C68.97 80.1 69.43 80.27 69.88 80.67C70.22 80.94 70.45 81.28 70.57 81.68C70.69 82.08 70.68 82.44 70.58 82.83C70.48 83.21 70.28 83.62 69.96 83.95C69.84 84.05 69.75 84.21 69.63 84.32C69.51 84.42 69.45 84.5 69.43 84.54L70.85 85.75L71.66 84.96L71.96 85.22L70.16 87.31L69.87 87.04L70.25 86.46L66.3 83.06ZM69.66 83.69C69.94 83.35 70.08 82.97 70.05 82.59C70.01 82.22 69.79 81.84 69.31 81.39C68.94 81.06 68.61 80.92 68.28 80.97C67.94 81.02 67.66 81.22 67.28 81.62C67.15 81.77 67.06 81.93 66.93 82.08C66.85 82.2 66.79 82.23 66.78 82.27L69.06 84.21C69.21 84.16 69.4 83.98 69.66 83.69Z" fill="#f6950099" fill-opacity="1.000000" fill-rule="nonzero"/>
		<path id="Vector" d="M74.34 82.18C73.84 82.32 73.34 82.28 72.83 82.15C72.33 81.97 71.85 81.7 71.37 81.25C70.94 80.81 70.6 80.36 70.43 79.8C70.24 79.3 70.25 78.75 70.35 78.22C70.48 77.71 70.71 77.22 71.13 76.83C71.45 76.5 71.81 76.18 72.37 75.82L72.6 75.66L73.63 76.76L73.25 77.16L72.3 76.59C72.2 76.61 72.05 76.66 71.89 76.75C71.73 76.85 71.54 77.03 71.35 77.21C71.1 77.46 70.97 77.79 70.93 78.1C70.88 78.46 70.97 78.8 71.14 79.21C71.31 79.58 71.62 79.99 72.02 80.37C72.38 80.74 72.82 81 73.22 81.2C73.63 81.4 74.03 81.46 74.4 81.42C74.78 81.38 75.11 81.19 75.41 80.91C75.61 80.69 75.75 80.5 75.83 80.38C75.91 80.26 75.95 80.09 75.94 79.95L75.57 79.12L75.99 78.77L76.73 79.75C76.67 79.82 76.58 79.98 76.47 80.23C76.37 80.43 76.28 80.59 76.19 80.75C76.1 80.91 75.96 81.1 75.76 81.32C75.28 81.75 74.79 82.03 74.34 82.18Z" fill="#f6950099" fill-opacity="1.000000" fill-rule="nonzero"/>
		<path id="Vector" d="M79.32 68.87L79.61 69.18L79.07 69.82L81.9 72.96L81.73 71.72L81.56 67.91L81.42 67.74L80.8 68.17L80.51 67.86L82.26 66.31L82.55 66.62L82.13 67.15L85.62 71.07L86.19 70.67L86.47 70.97L84.73 72.53L84.44 72.22L84.96 71.67L82.1 68.47L82.29 69.62L82.44 73.52L82.65 73.76L83.28 73.29L83.57 73.59L81.81 75.19L81.53 74.88L81.99 74.36L78.49 70.44L77.94 70.8L77.65 70.49L79.32 68.87Z" fill="#f6950099" fill-opacity="1.000000" fill-rule="nonzero"/>
		<path id="Vector" d="M83.69 65.27C83.83 65.08 83.97 64.89 84.11 64.74C84.24 64.59 84.36 64.48 84.48 64.38C85.01 63.93 85.53 63.7 85.96 63.63C86.4 63.56 86.76 63.75 87.07 64.11C87.35 64.46 87.48 64.82 87.42 65.21C87.36 65.61 87.23 65.94 86.95 66.28C87.36 65.98 87.77 65.81 88.16 65.87C88.57 65.89 88.89 66.07 89.17 66.42C89.55 66.88 89.69 67.38 89.6 67.86C89.52 68.35 89.16 68.85 88.51 69.36C88.27 69.57 88 69.73 87.78 69.86C87.57 69.98 87.36 70.06 87.21 70.12C87.06 70.17 86.96 70.19 86.95 70.23L86.13 69L86.48 68.73L87.35 69.42C87.64 69.36 88.01 69.18 88.37 68.87C88.67 68.62 88.83 68.35 88.82 68.07C88.81 67.74 88.71 67.44 88.39 67.08C88.19 66.8 87.91 66.63 87.6 66.59C87.29 66.56 86.93 66.69 86.53 66.99L86.06 67.37L85.75 67.01L86.11 66.7C86.28 66.56 86.42 66.37 86.52 66.17C86.62 65.96 86.68 65.75 86.65 65.51C86.62 65.28 86.5 65.06 86.33 64.83C86.09 64.53 85.85 64.38 85.57 64.4C85.29 64.41 85.03 64.53 84.75 64.73C84.57 64.91 84.43 65.06 84.3 65.2C84.17 65.35 84.18 65.49 84.2 65.59L84.56 66.28L84.15 66.63L83.26 65.66C83.37 65.6 83.5 65.45 83.69 65.27Z" fill="#f6950099" fill-opacity="1.000000" fill-rule="nonzero"/>
		<path id="Vector" d="M89.63 61.08L88.99 61.41L88.76 61.07L89.68 60.4C89.84 60.31 90.02 60.13 90.25 59.96C90.44 59.78 90.61 59.64 90.72 59.58C91.35 59.11 91.87 58.88 92.28 58.9C92.69 58.91 93.05 59.1 93.33 59.45C93.56 59.79 93.65 60.13 93.64 60.5C93.64 60.86 93.46 61.18 93.2 61.48C93.61 61.13 94.05 61.02 94.46 61.04C94.87 61.06 95.22 61.29 95.45 61.63C95.79 62.08 95.89 62.57 95.79 63.1C95.7 63.62 95.24 64.14 94.49 64.72C94.31 64.86 94.15 64.95 93.99 65.04C93.61 65.26 93.42 65.44 93.32 65.46L92.41 66.14L92.18 65.8L92.67 65.33L89.63 61.08ZM92.07 62.1L92.46 61.83C92.8 61.6 92.96 61.33 92.99 61.06C93.01 60.79 92.92 60.44 92.69 60.11C92.46 59.77 92.23 59.61 91.96 59.59C91.69 59.56 91.33 59.7 90.98 59.97C90.81 60.11 90.65 60.2 90.52 60.35L90.4 60.46L91.77 62.34C91.73 62.33 91.89 62.23 92.07 62.1ZM94.22 64.33C94.68 63.99 94.96 63.65 95.01 63.3C95.05 62.94 94.96 62.6 94.73 62.26C94.46 61.91 94.19 61.7 93.92 61.68C93.61 61.64 93.3 61.78 92.9 62.09C92.44 62.43 92.16 62.63 92.04 62.73L93.51 64.78C93.6 64.76 93.83 64.59 94.22 64.33Z" fill="#f6950099" fill-opacity="1.000000" fill-rule="nonzero"/>
		<path id="Vector" d="M95.29 56.4L96.08 55.87L101.01 59.58L101.48 59.34L101.71 59.68L99.86 60.93L99.63 60.59L100.17 60.14L99.15 59.31L97.08 60.69L97.44 61.93L98.08 61.6L98.31 61.93L96.63 63.04L96.4 62.71L96.77 62.35L95.29 56.4ZM96.49 57.22L95.89 56.74L96.15 57.5L96.93 60.23L98.71 59.06L96.49 57.22Z" fill="#f6950099" fill-opacity="1.000000" fill-rule="nonzero"/>
		<path id="Vector" d="M102.76 58.67C102.26 58.68 101.8 58.51 101.32 58.24C100.89 57.94 100.5 57.52 100.15 56.96C99.83 56.42 99.66 55.87 99.61 55.35C99.57 54.83 99.72 54.28 99.97 53.84C100.24 53.36 100.61 53 101.11 52.68C101.49 52.46 101.96 52.26 102.56 52.05L102.82 51.94L103.52 53.28L103.03 53.56L102.28 52.76C102.2 52.74 102.04 52.79 101.85 52.83C101.66 52.87 101.44 52.99 101.22 53.12C100.9 53.31 100.69 53.57 100.56 53.86C100.43 54.19 100.38 54.55 100.45 54.98C100.52 55.41 100.71 55.87 101.01 56.32C101.3 56.77 101.61 57.17 101.94 57.44C102.28 57.72 102.65 57.91 103.03 58.01C103.42 58.11 103.76 58.02 104.14 57.8C104.42 57.65 104.59 57.51 104.67 57.39C104.79 57.29 104.88 57.13 104.91 57L104.79 56.09L105.26 55.85L105.7 56.98C105.59 57.04 105.47 57.15 105.32 57.34C105.19 57.49 105.06 57.64 104.89 57.77C104.76 57.92 104.54 58.05 104.32 58.17C103.81 58.54 103.27 58.67 102.76 58.67Z" fill="#f6950099" fill-opacity="1.000000" fill-rule="nonzero"/>
		<path id="Vector" d="M107.16 50.67C107.2 50.17 107.32 49.7 107.57 49.31C107.81 48.92 108.12 48.63 108.55 48.38C109.04 48.1 109.53 48 109.98 48.03C110.43 48.06 110.89 48.23 111.26 48.55C111.63 48.88 111.98 49.3 112.3 49.8C112.65 50.4 112.81 50.99 112.84 51.55C112.88 52.11 112.79 52.59 112.54 53.03C112.28 53.47 111.97 53.79 111.53 54.04C111.04 54.33 110.56 54.43 110.06 54.39C109.61 54.36 109.15 54.19 108.77 53.9C108.39 53.62 108 53.19 107.73 52.66L106.54 53.3L107.71 55.45L108.38 55.18L108.56 55.54L106.52 56.65L106.34 56.28L106.91 55.88L104.43 51.27L103.77 51.5L103.55 51.12L105.53 50.05L105.75 50.43L105.19 50.83L106.26 52.82L107.49 52.18C107.25 51.7 107.15 51.22 107.16 50.67ZM107.95 50.1C107.89 50.68 108.07 51.37 108.54 52.19C108.95 52.89 109.36 53.42 109.88 53.69C110.4 53.97 110.86 54 111.39 53.73C111.86 53.49 112.12 53.05 112.13 52.51C112.14 51.96 111.96 51.27 111.53 50.46C111.12 49.76 110.71 49.23 110.23 48.97C109.75 48.7 109.26 48.66 108.78 48.9C108.3 49.14 108.02 49.52 107.95 50.1Z" fill="#f6950099" fill-opacity="1.000000" fill-rule="nonzero"/>
		<path id="Vector" d="M116.5 48.53C116.82 48.71 117.21 48.96 117.73 49.23C118.09 49.47 118.32 49.62 118.52 49.72C118.72 49.82 118.81 49.84 118.91 49.82L119.24 49.77L119.42 50.14L118.48 50.58C118.37 50.64 118.2 50.6 117.95 50.48C117.7 50.37 117.4 50.15 116.97 49.86C116.51 49.5 116.12 49.26 115.84 49.09C115.57 48.93 115.34 48.91 115.19 48.96L114.71 49.2L115.74 51.36L116.44 51.14L116.62 51.51L114.52 52.5L114.34 52.13L114.94 51.79L112.72 47.06L112.07 47.26L111.89 46.89L113.94 45.92L114.12 46.29L113.51 46.68L114.52 48.88L115.16 48.54L115.68 45.61L114.97 45.83L114.8 45.46L116.68 44.59L116.86 44.96L116.31 45.32L115.68 48.32C115.87 48.32 116.17 48.4 116.5 48.53Z" fill="#f6950099" fill-opacity="1.000000" fill-rule="nonzero"/>
		<path id="Vector" d="M120.65 49.33C120.16 49.24 119.77 49 119.41 48.63C119.05 48.26 118.72 47.8 118.47 47.18C118.22 46.56 118.09 46.02 118.14 45.49C118.19 44.95 118.32 44.48 118.62 44.05C118.91 43.63 119.32 43.32 119.78 43.13C120.61 42.8 121.3 42.8 121.95 43.11C122.6 43.42 123.11 44.06 123.48 44.94C123.72 45.56 123.84 46.14 123.79 46.68C123.74 47.22 123.6 47.73 123.3 48.15C123.01 48.58 122.6 48.88 122.14 49.08C121.6 49.35 121.13 49.41 120.65 49.33ZM119.03 44.76C118.92 45.33 119.06 46.01 119.38 46.87C119.72 47.65 120.12 48.22 120.59 48.53C121.04 48.88 121.54 48.92 122.06 48.69C122.57 48.51 122.86 48.08 122.97 47.51C123.08 46.95 122.95 46.22 122.57 45.39C122.23 44.61 121.83 44.04 121.37 43.73C120.9 43.42 120.41 43.34 119.89 43.57C119.42 43.81 119.13 44.19 119.03 44.76Z" fill="#f6950099" fill-opacity="1.000000" fill-rule="nonzero"/>
		<path id="Vector" d="M123.96 42.09L123.28 42.23L123.16 41.83L124.23 41.43C124.43 41.39 124.65 41.26 124.91 41.15C125.17 41.03 125.33 40.94 125.47 40.93C126.18 40.66 126.75 40.59 127.14 40.69C127.53 40.79 127.82 41.06 127.98 41.51C128.11 41.87 128.14 42.24 128.01 42.58C127.88 42.91 127.66 43.22 127.33 43.4C127.84 43.22 128.26 43.19 128.64 43.3C129.03 43.4 129.32 43.71 129.47 44.16C129.65 44.67 129.64 45.22 129.39 45.65C129.12 46.13 128.56 46.53 127.69 46.85C127.49 46.93 127.33 46.99 127.14 47.02C126.74 47.15 126.48 47.26 126.38 47.28L125.31 47.68L125.18 47.33L125.82 46.99L123.96 42.09ZM126.04 43.75L126.5 43.59C126.86 43.46 127.1 43.25 127.22 42.96C127.34 42.67 127.34 42.35 127.16 41.98C127.03 41.62 126.82 41.38 126.57 41.27C126.32 41.16 125.95 41.2 125.49 41.35C125.29 41.43 125.12 41.53 124.92 41.61L124.76 41.7L125.59 43.9C125.64 43.87 125.8 43.82 126.04 43.75ZM127.47 46.47C127.98 46.29 128.33 46.01 128.51 45.69C128.68 45.37 128.68 45.05 128.53 44.6C128.36 44.18 128.15 43.94 127.9 43.83C127.62 43.71 127.24 43.75 126.77 43.94C126.22 44.12 125.91 44.26 125.76 44.31L126.64 46.66C126.76 46.74 127.06 46.64 127.47 46.47Z" fill="#f6950099" fill-opacity="1.000000" fill-rule="nonzero"/>
		<path id="Vector" d="M136.37 37.42L136.49 37.82L135.85 38.16L137.36 43.15L138.14 42.99L138.26 43.39L136.01 44.08L135.89 43.68L136.52 43.39L134.98 38.34L132.38 39.11L133.92 44.16L134.7 44L134.82 44.4L132.57 45.08L132.45 44.68L133.08 44.39L131.57 39.4L130.85 39.53L130.73 39.13L136.37 37.42Z" fill="#f6950099" fill-opacity="1.000000" fill-rule="nonzero"/>
		<path id="Vector" d="M139.89 42.64C139.42 42.47 139.04 42.18 138.74 41.78C138.43 41.37 138.21 40.85 138.05 40.22C137.9 39.58 137.87 39.02 137.98 38.45C138.07 37.93 138.33 37.49 138.66 37.12C138.98 36.75 139.42 36.5 139.96 36.37C140.8 36.13 141.51 36.23 142.13 36.67C142.7 37.1 143.12 37.76 143.36 38.75C143.51 39.38 143.53 39.99 143.44 40.51C143.33 41.08 143.08 41.52 142.71 41.88C142.33 42.24 141.9 42.49 141.4 42.63C140.81 42.79 140.35 42.8 139.89 42.64ZM138.92 37.83C138.73 38.38 138.77 39.08 138.99 39.96C139.19 40.8 139.53 41.39 139.93 41.78C140.33 42.16 140.85 42.3 141.35 42.15C141.89 42.02 142.2 41.7 142.41 41.11C142.6 40.56 142.57 39.82 142.35 38.93C142.16 38.1 141.81 37.5 141.41 37.12C141.01 36.74 140.53 36.61 140 36.74C139.48 36.97 139.1 37.33 138.92 37.83Z" fill="#f6950099" fill-opacity="1.000000" fill-rule="nonzero"/>
		<path id="Vector" d="M146.16 39.08C146.22 39.88 146.16 40.46 145.99 40.92C145.93 41.13 145.79 41.33 145.67 41.43C145.55 41.54 145.39 41.63 145.19 41.67C144.95 41.74 144.72 41.73 144.62 41.75L144.43 41.1C144.57 41.09 144.76 41.05 145.05 40.99C145.15 40.97 145.25 40.95 145.32 40.88C145.38 40.8 145.45 40.73 145.48 40.6C145.77 39.85 145.68 38.5 145.26 36.46L145.11 35.82L144.12 35.92L144.04 35.53L148.8 34.56L148.88 34.95L148.12 35.2L149.17 40.35L150.03 40.26L150.11 40.65L147.58 41.16L147.5 40.77L148.35 40.5L147.3 35.35L145.65 35.69L145.82 36.42C145.96 37.42 146.09 38.33 146.16 39.08Z" fill="#f6950099" fill-opacity="1.000000" fill-rule="nonzero"/>
		<path id="Vector" d="M150.5 34.74L149.81 34.74L149.74 34.3L153.97 33.6L154.31 34.89L153.84 34.94L153.45 34.15L151.4 34.43L151.78 36.78L153.19 36.51L153.19 35.82L153.66 35.77L153.97 37.69L153.5 37.74L153.28 37.04L151.88 37.27L152.27 39.76L154.6 39.28L154.86 38.15L155.38 38.25L155.4 39.72L150.8 40.46L150.72 40.07L151.41 39.89L150.5 34.74Z" fill="#f6950099" fill-opacity="1.000000" fill-rule="nonzero"/>
		<path id="Vector" d="M157.44 33.66L156.01 33.87L155.94 35.65L155.37 35.72L155.24 33.48L160.46 32.86L160.83 35.07L160.31 35.12L159.81 33.38L158.36 33.49L159.01 38.76L160.22 38.72L160.24 39.14L157.06 39.53L157.04 39.11L158.11 38.89L157.44 33.66Z" fill="#f6950099" fill-opacity="1.000000" fill-rule="nonzero"/>
		<path id="Vector" d="M164.33 36.06L163.91 36.08C163.79 36.19 163.64 36.38 163.53 36.62C163.41 36.91 163.28 37.24 163.16 37.67C163 38.09 162.92 38.39 162.82 38.59C162.72 38.79 162.64 38.91 162.55 38.93L161.42 39.04L161.39 38.62L161.69 38.52C161.79 38.5 161.86 38.42 161.95 38.26C162.03 38.1 162.15 37.86 162.28 37.53C162.43 37.15 162.6 36.83 162.72 36.59C162.87 36.35 163.01 36.16 163.18 36.07C162.78 36.01 162.46 35.83 162.22 35.54C161.97 35.24 161.84 34.88 161.82 34.46C161.76 33.81 161.94 33.3 162.29 33.03C162.69 32.73 163.25 32.55 163.99 32.52C164.13 32.51 164.37 32.48 164.63 32.51C164.91 32.49 165.1 32.5 165.24 32.49L166.45 32.4L166.48 32.82L165.8 32.96L166.21 38.12L166.98 38.14L167.01 38.56L164.52 38.77L164.49 38.35L165.31 38.2L165.14 35.95L164.33 36.06ZM164.67 32.89C164.4 32.86 164.21 32.9 163.98 32.89C163.56 32.91 163.21 33.05 163.02 33.23C162.78 33.44 162.69 33.78 162.74 34.25C162.76 34.72 162.95 35.04 163.16 35.28C163.42 35.49 163.77 35.58 164.19 35.56C164.65 35.54 164.94 35.48 165.08 35.48L164.9 32.9L164.67 32.89Z" fill="#f6950099" fill-opacity="1.000000" fill-rule="nonzero"/>
		<path id="Vector" d="M169.5 32.67L168.05 32.78L167.81 34.55L167.25 34.59L167.31 32.31L172.55 32.11L172.72 34.36L172.22 34.36L171.86 32.61L170.39 32.63L170.57 37.96L171.75 38L171.77 38.42L168.58 38.53L168.55 38.11L169.64 37.98L169.5 32.67Z" fill="#f6950099" fill-opacity="1.000000" fill-rule="nonzero"/>
		<path id="Vector" d="M176.64 38.07C176.22 37.77 175.9 37.41 175.66 36.93C175.42 36.46 175.35 35.89 175.33 35.24C175.37 34.61 175.52 34.05 175.78 33.57C176.05 33.09 176.42 32.73 176.9 32.49C177.37 32.25 177.87 32.11 178.46 32.13C178.87 32.15 179.41 32.2 180.01 32.36L180.27 32.43L180.13 33.95L179.58 33.95L179.41 32.89C179.33 32.82 179.22 32.75 179 32.69C178.79 32.63 178.56 32.62 178.29 32.59C177.93 32.58 177.63 32.69 177.34 32.89C177.06 33.09 176.84 33.39 176.65 33.76C176.49 34.17 176.38 34.6 176.36 35.19C176.35 35.74 176.4 36.22 176.53 36.62C176.65 37.02 176.87 37.4 177.17 37.66C177.46 37.92 177.79 38.06 178.2 38.07C178.52 38.07 178.71 38.07 178.9 38.03C179.05 37.98 179.2 37.93 179.32 37.82L179.68 37L180.21 37.1L179.98 38.28C179.84 38.28 179.69 38.34 179.46 38.36C179.26 38.4 179.06 38.49 178.87 38.48C178.68 38.52 178.45 38.51 178.17 38.53C177.58 38.5 177.07 38.37 176.64 38.07Z" fill="#f6950099" fill-opacity="1.000000" fill-rule="nonzero"/>
		<path id="Vector" d="M183.68 32.38L183.66 32.79L182.82 32.84L182.51 37.07L183.28 36.08L185.91 33.3L185.92 33.07L185.18 32.92L185.2 32.51L187.5 32.67L187.48 33.08L186.83 33.13L186.48 38.36L187.18 38.5L187.16 38.91L184.82 38.74L184.83 38.34L185.58 38.31L185.85 34.02L185.15 34.93L182.47 37.75L182.43 38.06L183.22 38.18L183.21 38.59L180.82 38.41L180.84 38L181.54 37.96L181.88 32.73L181.23 32.6L181.25 32.19L183.68 32.38Z" fill="#f6950099" fill-opacity="1.000000" fill-rule="nonzero"/>
		<path id="Vector" d="M192.82 33.22L192.64 35.42L192.06 35.36L192.01 33.65L190.16 33.38L189.56 38.68L191.01 38.93L190.95 39.33L187.65 38.95L187.71 38.56L188.63 38.57L189.19 33.4L188.33 33.17L188.39 32.77L192.82 33.22Z" fill="#f6950099" fill-opacity="1.000000" fill-rule="nonzero"/>
		<path id="Vector" d="M194.24 33.92L193.6 33.71L193.66 33.31L195.92 33.64L195.86 34.04L195.13 34.02L194.8 36.28L197.7 36.74L198.03 34.48L197.36 34.26L197.42 33.86L199.67 34.19L199.61 34.58L198.92 34.58L198.14 39.74L198.78 39.92L198.72 40.31L196.47 39.98L196.53 39.59L197.22 39.59L197.59 37.16L194.68 36.71L194.31 39.13L195.04 39.33L194.98 39.72L192.68 39.38L192.74 38.99L193.43 38.99L194.24 33.92Z" fill="#f6950099" fill-opacity="1.000000" fill-rule="nonzero"/>
		<path id="Vector" d="M202.72 34.82L203.63 35.02L204.47 41.12L204.97 41.3L204.91 41.7L202.74 41.25L202.8 40.85L203.52 40.91L203.37 39.58L200.98 39.08L200.35 40.24L201.02 40.47L200.96 40.87L199 40.48L199.06 40.08L199.61 40.09L202.72 34.82ZM202.98 36.22L202.91 35.47L202.59 36.16L201.23 38.64L203.32 39.07L202.98 36.22Z" fill="#f6950099" fill-opacity="1.000000" fill-rule="nonzero"/>
		<path id="Vector" d="M207.54 39.97C207.25 40.67 206.92 41.22 206.61 41.55C206.42 41.73 206.26 41.83 206.11 41.88C205.95 41.93 205.77 41.93 205.56 41.87C205.3 41.8 205.09 41.74 204.97 41.67L205.06 41C205.18 41.03 205.4 41.09 205.65 41.16C205.74 41.18 205.84 41.16 205.93 41.14C206.03 41.12 206.1 41.05 206.22 40.94C206.78 40.4 207.35 39.13 207.84 37.11L208.01 36.47L207.11 36.23L207.23 35.8L211.96 36.97L211.85 37.4L211.04 37.32L209.78 42.4L210.57 42.71L210.46 43.09L207.92 42.46L208.03 42.07L208.91 42.22L210.18 37.14L208.49 36.73L208.3 37.46C208.1 38.37 207.82 39.26 207.54 39.97Z" fill="#f6950099" fill-opacity="1.000000" fill-rule="nonzero"/>
		<path id="Vector" d="M214.78 40.35C215.41 40.56 215.88 40.87 216.14 41.26C216.4 41.65 216.45 42.17 216.26 42.72C216.04 43.35 215.7 43.76 215.24 43.96C214.72 44.18 214.17 44.18 213.52 44C213.44 43.98 213.35 43.96 213.27 43.93C213.18 43.91 213.1 43.89 212.98 43.81C212.69 43.69 212.39 43.61 212.15 43.5L211.04 43.15L211.15 42.77L211.84 42.91L213.37 37.9L212.76 37.6L212.86 37.22L215.15 37.92L215.05 38.31L214.21 38.17L213.62 40.04L214.78 40.35ZM213.05 43.37C213.14 43.39 213.3 43.48 213.47 43.53C213.94 43.66 214.3 43.66 214.63 43.47C214.96 43.29 215.18 42.98 215.3 42.51C215.43 42.03 215.42 41.71 215.24 41.39C215.08 41.11 214.77 40.89 214.31 40.73L213.5 40.51L212.68 43.23C212.85 43.27 212.97 43.35 213.05 43.37ZM220.55 39.55L220.44 39.94L219.65 39.81L218.13 44.82L218.86 45.16L218.76 45.54L216.38 44.82L216.49 44.43L217.27 44.59L218.79 39.58L218.06 39.25L218.16 38.86L220.55 39.55Z" fill="#f6950099" fill-opacity="1.000000" fill-rule="nonzero"/>
		<path id="Vector" d="M224.01 41.35L223.42 41.01L223.56 40.63L225.69 41.43L225.54 41.81L224.85 41.67L224.05 43.79L226.84 44.86L227.64 42.74L227.04 42.39L227.19 42.02L229.31 42.82L229.17 43.19L228.51 43.06L226.64 47.98L227.25 48.28L227.11 48.65L224.98 47.85L225.13 47.48L225.81 47.66L226.7 45.38L223.91 44.31L223.02 46.59L223.66 46.95L223.52 47.32L221.36 46.47L221.5 46.1L222.19 46.28L224.01 41.35Z" fill="#f6950099" fill-opacity="1.000000" fill-rule="nonzero"/>
		<path id="Vector" d="M232.12 43.98L232.99 44.35L232.53 50.52L232.95 50.82L232.81 51.19L230.76 50.27L230.9 49.9L231.58 50.13L231.75 48.8L229.49 47.82L228.63 48.79L229.27 49.14L229.13 49.52L227.28 48.7L227.42 48.33L227.94 48.46L232.12 43.98ZM232.1 45.45L232.21 44.69L231.72 45.3L229.87 47.42L231.85 48.27L232.1 45.45Z" fill="#f6950099" fill-opacity="1.000000" fill-rule="nonzero"/>
		<path id="Vector" d="M238.3 47.48L237.53 46.95L237.72 46.58L239.69 47.62L239.01 51.52L238.76 52.6L239.49 51.79L242.27 48.95L244.24 49.98L244.05 50.35L243.18 50.02L241.35 54.95L241.97 55.39L241.78 55.75L239.65 54.63L239.83 54.27L240.54 54.55L241.94 51.02L242.54 49.48L241.65 50.39L238.39 53.65L237.91 53.38L238.59 49.16L238.88 47.54L238.01 48.91L235.95 52.13L236.66 52.59L236.47 52.95L234.54 51.93L234.73 51.57L235.39 51.84L238.3 47.48Z" fill="#f6950099" fill-opacity="1.000000" fill-rule="nonzero"/>
		<path id="Vector" d="M247.03 51.56L247.82 52.05L246.65 58.11L247.08 58.41L246.89 58.77L244.98 57.67L245.17 57.3L245.83 57.57L246.12 56.32L244.03 55.07L243.05 55.96L243.63 56.39L243.44 56.75L241.74 55.74L241.92 55.38L242.43 55.56L247.03 51.56ZM246.84 52.98L247.03 52.25L246.47 52.79L244.36 54.7L246.22 55.79L246.84 52.98Z" fill="#f6950099" fill-opacity="1.000000" fill-rule="nonzero"/>
		<path id="Vector" d="M250.76 54.44L250.28 53.99L250.52 53.64L251.45 54.26C251.61 54.35 251.8 54.49 251.96 54.58C252.24 54.74 252.48 54.86 252.72 55.01C253.38 55.46 253.81 55.9 253.92 56.34C254.03 56.79 253.95 57.27 253.64 57.74C253.4 58.13 253.1 58.37 252.73 58.55C252.37 58.73 251.99 58.76 251.59 58.7C251.19 58.64 250.78 58.48 250.38 58.24C250.22 58.15 250.11 58.08 249.96 57.94C249.8 57.86 249.72 57.79 249.69 57.74L248.68 59.3L249.59 60L249.36 60.35L247.05 58.86L247.28 58.51L247.93 58.82L250.76 54.44ZM250.62 57.89C251.01 58.13 251.35 58.23 251.74 58.15C252.13 58.07 252.48 57.79 252.81 57.24C253.05 56.85 253.16 56.46 253.05 56.16C252.95 55.85 252.71 55.56 252.28 55.26C252.12 55.17 251.96 55.08 251.76 54.98C251.64 54.91 251.56 54.88 251.56 54.88L249.92 57.38C250.07 57.52 250.26 57.66 250.62 57.89Z" fill="#f6950099" fill-opacity="1.000000" fill-rule="nonzero"/>
		<path id="Vector" d="M252.75 62.27C252.55 61.81 252.51 61.29 252.59 60.81C252.67 60.32 252.92 59.75 253.29 59.2C253.66 58.71 254.08 58.31 254.56 58.08C255.04 57.84 255.57 57.75 256.1 57.8C256.64 57.85 257.14 58.03 257.6 58.38C257.95 58.62 258.35 59 258.74 59.43L258.97 59.62L258.01 60.79L257.54 60.48L257.99 59.5C257.97 59.4 257.86 59.28 257.77 59.12C257.68 58.96 257.44 58.8 257.21 58.65C256.9 58.43 256.6 58.35 256.23 58.34C255.87 58.33 255.51 58.47 255.17 58.7C254.84 58.93 254.46 59.29 254.17 59.71C253.87 60.14 253.66 60.59 253.5 61C253.39 61.43 253.32 61.83 253.45 62.23C253.57 62.63 253.77 62.91 254.12 63.14C254.35 63.3 254.55 63.44 254.72 63.49C254.89 63.53 255.02 63.57 255.16 63.56L255.93 63.08L256.33 63.46L255.46 64.33C255.34 64.25 255.17 64.21 254.96 64.11C254.75 64.05 254.59 63.96 254.38 63.9C254.22 63.81 254.01 63.71 253.78 63.56C253.33 63.16 252.94 62.74 252.75 62.27Z" fill="#f6950099" fill-opacity="1.000000" fill-rule="nonzero"/>
		<path id="Vector" d="M265.03 64.05L264.76 64.39L264.06 63.93L261.39 67.2L262.59 66.84L266.32 66.09L266.47 65.9L265.97 65.36L266.24 65.02L268.05 66.51L267.77 66.85L267.18 66.51L263.84 70.57L264.35 71.07L264.08 71.37L262.28 69.88L262.54 69.58L263.17 69.98L265.89 66.67L264.79 67.01L260.96 67.78L260.76 68L261.3 68.56L261.04 68.85L259.19 67.35L259.45 67.05L260.04 67.44L263.38 63.38L262.91 62.88L263.19 62.54L265.03 64.05Z" fill="#f6950099" fill-opacity="1.000000" fill-rule="nonzero"/>
		<path id="Vector" d="M269.31 67.81C269.55 67.92 269.7 68.05 269.86 68.14C270.02 68.23 270.17 68.36 270.28 68.44C270.8 68.9 271.14 69.36 271.25 69.8C271.36 70.24 271.26 70.63 270.94 70.96C270.62 71.29 270.3 71.47 269.89 71.46C269.51 71.49 269.13 71.39 268.78 71.16C269.14 71.53 269.35 71.91 269.39 72.29C269.43 72.66 269.28 73.04 269.02 73.33C268.62 73.78 268.15 74.02 267.65 73.98C267.15 73.98 266.63 73.7 265.99 73.17C265.72 72.96 265.56 72.73 265.39 72.5C265.22 72.27 265.12 72.11 265.02 71.99C264.96 71.88 264.89 71.77 264.86 71.72L265.95 70.72L266.25 70.99L265.72 71.95C265.82 72.25 266.06 72.54 266.39 72.86C266.69 73.12 266.93 73.23 267.27 73.19C267.56 73.13 267.87 72.98 268.15 72.64C268.4 72.39 268.48 72.09 268.52 71.78C268.56 71.47 268.32 71.13 267.95 70.8L267.51 70.4L267.83 70.08L268.2 70.41C268.39 70.55 268.58 70.69 268.79 70.75C269.01 70.81 269.23 70.82 269.48 70.75C269.73 70.68 269.91 70.54 270.1 70.32C270.37 70.02 270.48 69.78 270.42 69.49C270.4 69.21 270.23 68.98 269.94 68.71C269.76 68.53 269.6 68.44 269.39 68.34C269.23 68.25 269.09 68.26 269 68.28L268.36 68.75L267.95 68.41L268.78 67.39C268.91 67.57 269.07 67.66 269.31 67.81Z" fill="#f6950099" fill-opacity="1.000000" fill-rule="nonzero"/>
		<path id="Vector" d="M274.33 73.06L273.93 72.49L274.23 72.21L275.03 73.02C275.18 73.15 275.35 73.33 275.58 73.53C275.8 73.73 275.95 73.86 276.02 73.93C276.56 74.48 276.9 74.94 276.92 75.36C277 75.75 276.86 76.12 276.54 76.45C276.23 76.74 275.92 76.88 275.58 76.93C275.25 76.98 274.86 76.87 274.51 76.64C274.92 77.03 275.14 77.41 275.16 77.83C275.19 78.25 275.05 78.58 274.73 78.91C274.35 79.31 273.84 79.49 273.35 79.45C272.81 79.4 272.21 79.06 271.56 78.42C271.41 78.29 271.27 78.12 271.17 78C270.88 77.69 270.7 77.5 270.63 77.44L269.84 76.63L270.14 76.34L270.71 76.77L274.33 73.06ZM271.83 78.08C272.24 78.47 272.59 78.7 272.95 78.7C273.32 78.71 273.63 78.56 273.94 78.28C274.24 77.99 274.38 77.66 274.36 77.38C274.34 77.1 274.16 76.78 273.8 76.41C273.39 76.02 273.14 75.77 273.04 75.65L271.27 77.43C271.29 77.52 271.52 77.72 271.83 78.08ZM273.74 75.61L274.06 75.93C274.36 76.19 274.64 76.35 274.92 76.34C275.2 76.32 275.51 76.18 275.77 75.88C276.04 75.58 276.19 75.35 276.18 75.07C276.16 74.79 275.97 74.46 275.64 74.15C275.49 74.01 275.35 73.88 275.15 73.74L275.01 73.61L273.36 75.28C273.45 75.3 273.56 75.42 273.74 75.61Z" fill="#f6950099" fill-opacity="1.000000" fill-rule="nonzero"/>
		<path id="Vector" d="M279.87 77.9L280.51 78.57L277.64 84L277.93 84.45L277.63 84.73L276.14 83.09L276.44 82.81L276.96 83.27L277.64 82.12L275.97 80.29L274.76 80.84L275.21 81.42L274.9 81.71L273.55 80.24L273.85 79.96L274.27 80.3L279.87 77.9ZM279.2 79.19L279.61 78.51L278.92 78.88L276.35 80.07L277.81 81.66L279.2 79.19Z" fill="#f6950099" fill-opacity="1.000000" fill-rule="nonzero"/>
		<path id="Vector" d="M278.72 85.62C278.63 85.09 278.71 84.61 278.94 84.12C279.16 83.63 279.51 83.17 280.04 82.76C280.52 82.34 281.04 82.11 281.58 81.98C282.12 81.85 282.65 81.9 283.16 82.08C283.66 82.26 284.08 82.56 284.46 83.03C284.74 83.38 285.03 83.82 285.3 84.35L285.42 84.61L284.21 85.53L283.86 85.12L284.55 84.24C284.53 84.15 284.52 84.01 284.43 83.84C284.33 83.68 284.21 83.46 284.03 83.28C283.79 82.98 283.51 82.82 283.17 82.73C282.82 82.63 282.45 82.67 282.05 82.79C281.65 82.92 281.21 83.17 280.8 83.51C280.38 83.86 280.05 84.23 279.82 84.58C279.58 84.98 279.48 85.36 279.47 85.73C279.46 86.1 279.6 86.45 279.87 86.8C280.08 87.04 280.23 87.17 280.39 87.26C280.55 87.35 280.67 87.43 280.81 87.42L281.66 87.14L281.96 87.59L280.91 88.23C280.84 88.16 280.69 88.03 280.5 87.89C280.3 87.79 280.15 87.66 280 87.52C279.85 87.39 279.66 87.25 279.49 87.02C279.05 86.63 278.81 86.15 278.72 85.62Z" fill="#f6950099" fill-opacity="1.000000" fill-rule="nonzero"/>
		<path id="Vector" d="M287.29 88.74C287.81 88.7 288.25 88.77 288.67 88.93C289.08 89.09 289.45 89.42 289.73 89.76C290.07 90.22 290.23 90.63 290.29 91.11C290.3 91.57 290.23 92.01 289.97 92.45C289.72 92.88 289.38 93.3 288.87 93.66C288.34 94.08 287.77 94.33 287.23 94.47C286.69 94.6 286.2 94.56 285.69 94.38C285.19 94.19 284.85 93.92 284.54 93.52C284.21 93.06 284.01 92.59 283.96 92.12C283.9 91.65 284.01 91.22 284.23 90.77C284.48 90.33 284.82 89.92 285.29 89.54L284.48 88.45L282.52 89.94L282.9 90.6L282.56 90.83L281.17 88.99L281.51 88.75L282.01 89.26L286.17 86.1L285.82 85.5L286.17 85.23L287.53 87.02L287.18 87.29L286.67 86.79L284.88 88.14L285.69 89.23C286.31 88.99 286.81 88.84 287.29 88.74ZM288.02 89.44C287.46 89.48 286.79 89.76 286.04 90.34C285.4 90.85 284.95 91.33 284.76 91.87C284.56 92.42 284.62 92.89 284.96 93.35C285.31 93.77 285.71 93.97 286.28 93.89C286.84 93.86 287.48 93.52 288.22 92.99C288.87 92.47 289.31 91.99 289.51 91.45C289.7 90.9 289.64 90.43 289.34 90.03C289.03 89.62 288.58 89.41 288.02 89.44Z" fill="#f6950099" fill-opacity="1.000000" fill-rule="nonzero"/>
		<path id="Vector" d="M290.88 97.65C290.78 97.99 290.57 98.44 290.34 98.97C290.15 99.33 290.07 99.63 289.98 99.79C289.93 99.96 289.89 100.14 289.92 100.19L290.02 100.49L289.68 100.72L289.09 99.88C289.02 99.77 289.03 99.58 289.14 99.34C289.25 99.09 289.4 98.72 289.61 98.27C289.89 97.75 290.04 97.33 290.17 97.04C290.29 96.75 290.26 96.52 290.21 96.37L289.92 95.92L287.95 97.27L288.27 97.96L287.93 98.19L286.65 96.28L286.99 96.05L287.44 96.59L291.76 93.66L291.47 93.03L291.81 92.8L293.06 94.65L292.72 94.88L292.26 94.35L290.25 95.69L290.64 96.3L293.61 96.36L293.28 95.72L293.61 95.49L294.76 97.22L294.42 97.45L293.95 96.96L290.91 96.83C290.99 97.04 290.97 97.3 290.88 97.65Z" fill="#f6950099" fill-opacity="1.000000" fill-rule="nonzero"/>
		<path id="Vector" d="M290.71 101.87C290.74 101.42 290.86 100.95 291.2 100.54C291.5 100.11 291.93 99.72 292.47 99.41C293.03 99.05 293.58 98.88 294.09 98.83C294.65 98.8 295.14 98.88 295.58 99.09C296.03 99.3 296.4 99.63 296.69 100.12C297.12 100.88 297.26 101.56 297.03 102.28C296.8 102.95 296.27 103.55 295.45 104.06C294.89 104.42 294.34 104.59 293.77 104.67C293.21 104.7 292.73 104.62 292.24 104.39C291.79 104.18 291.43 103.81 291.13 103.36C290.82 102.82 290.72 102.33 290.71 101.87ZM295.01 99.53C294.46 99.52 293.76 99.75 292.98 100.23C292.27 100.68 291.77 101.15 291.54 101.68C291.26 102.2 291.32 102.68 291.6 103.17C291.89 103.61 292.33 103.87 292.88 103.88C293.47 103.9 294.13 103.66 294.9 103.18C295.62 102.73 296.11 102.26 296.35 101.73C296.57 101.24 296.57 100.73 296.29 100.24C295.99 99.8 295.6 99.55 295.01 99.53Z" fill="#f6950099" fill-opacity="1.000000" fill-rule="nonzero"/>
		<path id="Vector" d="M298.38 104.07L298.15 103.41L298.53 103.19L299.09 104.16C299.19 104.33 299.31 104.54 299.48 104.77C299.65 105 299.74 105.16 299.81 105.27C300.17 105.97 300.35 106.48 300.28 106.92C300.21 107.36 300 107.62 299.61 107.88C299.28 108.07 298.9 108.15 298.54 108.1C298.19 108.05 297.87 107.88 297.59 107.53C297.88 108.02 297.96 108.4 297.88 108.84C297.82 109.24 297.56 109.54 297.18 109.76C296.69 110.04 296.17 110.08 295.67 109.9C295.17 109.72 294.7 109.23 294.23 108.42C294.14 108.25 294.06 108.05 293.96 107.89C293.74 107.51 293.63 107.25 293.6 107.19L293.03 106.21L293.4 106.04L293.8 106.6L298.38 104.07ZM294.57 108.19C294.85 108.67 295.14 108.98 295.48 109.07C295.82 109.16 296.16 109.12 296.54 108.9C296.92 108.68 297.13 108.41 297.2 108.15C297.26 107.9 297.19 107.51 296.94 107.07C296.65 106.59 296.46 106.26 296.4 106.15L294.2 107.35C294.24 107.55 294.35 107.81 294.57 108.19ZM297.09 106.34L297.29 106.76C297.48 107.08 297.75 107.29 298.01 107.36C298.31 107.44 298.6 107.38 298.98 107.16C299.3 106.97 299.5 106.75 299.57 106.5C299.64 106.24 299.55 105.89 299.3 105.46C299.2 105.3 299.07 105.12 298.98 104.91L298.89 104.75L296.84 105.9C296.9 106.01 296.96 106.12 297.09 106.34Z" fill="#f6950099" fill-opacity="1.000000" fill-rule="nonzero"/>
		<path id="Vector" d="M304.95 115.56L304.58 115.73L304.19 115.12L299.49 117.4L299.75 118.16L299.38 118.34L298.35 116.18L298.72 116L299.11 116.61L303.85 114.34L302.66 111.92L297.91 114.22L298.17 114.98L297.8 115.16L296.76 113.04L297.13 112.87L297.48 113.42L302.18 111.14L301.95 110.44L302.32 110.26L304.95 115.56Z" fill="#f6950099" fill-opacity="1.000000" fill-rule="nonzero"/>
		<path id="Vector" d="M300.3 119.87C300.39 119.38 300.63 118.99 300.96 118.62C301.33 118.26 301.79 117.92 302.36 117.66C302.94 117.41 303.52 117.29 304.06 117.34C304.59 117.39 305.06 117.52 305.49 117.81C305.91 118.11 306.22 118.51 306.42 118.98C306.75 119.8 306.79 120.5 306.43 121.14C306.12 121.79 305.48 122.31 304.6 122.67C303.98 122.92 303.4 123.04 302.86 122.99C302.33 122.93 301.81 122.8 301.39 122.5C300.96 122.2 300.66 121.8 300.42 121.32C300.27 120.82 300.19 120.3 300.3 119.87ZM304.88 118.2C304.31 118.1 303.63 118.23 302.75 118.6C301.97 118.94 301.41 119.34 301.1 119.81C300.79 120.27 300.71 120.76 300.93 121.28C301.16 121.8 301.54 122.08 302.11 122.19C302.68 122.3 303.4 122.17 304.24 121.79C305.02 121.45 305.58 121.05 305.89 120.59C306.2 120.12 306.24 119.62 306.06 119.11C305.83 118.59 305.45 118.31 304.88 118.2Z" fill="#f6950099" fill-opacity="1.000000" fill-rule="nonzero"/>
		<path id="Vector" d="M304.77 125.47C303.99 125.63 303.38 125.7 302.94 125.62C302.72 125.57 302.51 125.51 302.4 125.39C302.25 125.26 302.15 125.14 302.07 124.93C301.95 124.67 301.91 124.48 301.9 124.34L302.53 124.05C302.54 124.19 302.62 124.39 302.74 124.65C302.76 124.75 302.83 124.82 302.91 124.88C302.98 124.95 303.07 124.97 303.19 125C303.98 125.17 305.34 124.89 307.23 124.16L307.85 123.91L307.6 122.97L308.01 122.8L309.73 127.35L309.32 127.52L308.95 126.82L304.05 128.67L304.25 129.46L303.85 129.59L302.94 127.14L303.34 127.02L303.73 127.81L308.63 125.96L308.04 124.38L307.33 124.64C306.39 125.08 305.54 125.31 304.77 125.47Z" fill="#f6950099" fill-opacity="1.000000" fill-rule="nonzero"/>
		<path id="Vector" d="M309.76 129.11L309.62 128.42L310.02 128.3L311.36 132.38L310.17 132.89L310.02 132.43L310.7 131.93L310.09 129.93L307.83 130.65L308.31 131.97L309.02 131.89L309.17 132.34L307.31 132.95L307.16 132.49L307.8 132.16L307.38 130.81L305.01 131.6L305.83 133.84L307 133.92L307.01 134.43L305.53 134.63L304.05 130.19L304.45 130.07L304.74 130.7L309.76 129.11Z" fill="#f6950099" fill-opacity="1.000000" fill-rule="nonzero"/>
		<path id="Vector" d="M311.92 135.79L311.46 134.43L309.66 134.63L309.53 134.09L311.72 133.62L313.16 138.69L311 139.4L310.86 138.9L312.48 138.14L312.13 136.72L307.02 138.15L307.26 139.31L306.86 139.44L305.98 136.36L306.38 136.23L306.75 137.25L311.92 135.79Z" fill="#f6950099" fill-opacity="1.000000" fill-rule="nonzero"/>
		<path id="Vector" d="M310.59 142.96L310.51 142.57C310.41 142.45 310.19 142.4 309.89 142.32C309.6 142.24 309.24 142.19 308.8 142.12C308.36 142.04 308.06 141.96 307.85 141.91C307.63 141.85 307.52 141.77 307.5 141.67L307.25 140.55L307.63 140.47L307.78 140.78C307.81 140.84 307.93 140.92 308.09 141.01C308.26 141.05 308.52 141.12 308.85 141.25C309.23 141.36 309.58 141.45 309.88 141.53C310.12 141.64 310.32 141.74 310.47 141.87C310.49 141.47 310.62 141.13 310.83 140.87C311.1 140.57 311.42 140.38 311.81 140.31C312.45 140.15 312.97 140.25 313.3 140.57C313.63 140.88 313.9 141.42 314.07 142.15C314.12 142.3 314.15 142.54 314.18 142.78C314.2 143.06 314.24 143.25 314.29 143.4L314.57 144.58L314.17 144.7L313.89 144.03L308.79 145.23L308.91 146L308.53 146.04L307.94 143.63L308.32 143.55L308.58 144.31L310.74 143.78L310.59 142.96ZM313.75 142.84C313.72 142.61 313.69 142.37 313.65 142.17C313.54 141.73 313.38 141.46 313.16 141.26C312.94 141.07 312.57 141.06 312.13 141.17C311.69 141.28 311.36 141.47 311.2 141.75C311.03 142.02 310.98 142.38 311.09 142.82C311.2 143.26 311.26 143.56 311.32 143.66L313.83 143.05L313.75 142.84Z" fill="#f6950099" fill-opacity="1.000000" fill-rule="nonzero"/>
		<path id="Vector" d="M314.73 147.56L314.42 146.15L312.62 146.21L312.53 145.68L314.76 145.41L315.77 150.55L313.57 151.06L313.48 150.53L315.16 149.92L314.94 148.49L309.72 149.48L309.86 150.66L309.47 150.74L308.85 147.59L309.24 147.51L309.55 148.56L314.73 147.56Z" fill="#f6950099" fill-opacity="1.000000" fill-rule="nonzero"/>
		<path id="Vector" d="M310.51 155.43C310.73 154.98 311.07 154.57 311.5 154.32C311.95 154.02 312.5 153.85 313.12 153.74C313.74 153.67 314.33 153.7 314.82 153.92C315.32 154.1 315.74 154.44 316.08 154.86C316.43 155.27 316.62 155.78 316.69 156.35C316.76 156.78 316.76 157.29 316.69 157.91L316.66 158.18L315.17 158.28L315.09 157.71L316.11 157.34C316.17 157.27 316.22 157.09 316.22 156.91C316.23 156.73 316.25 156.46 316.18 156.21C316.13 155.88 315.99 155.56 315.73 155.31C315.48 155.06 315.16 154.88 314.73 154.77C314.3 154.65 313.84 154.67 313.28 154.7C312.75 154.79 312.31 154.9 311.89 155.11C311.46 155.32 311.17 155.56 310.95 155.87C310.73 156.17 310.67 156.57 310.7 156.95C310.76 157.24 310.79 157.48 310.89 157.64C310.94 157.79 311.04 157.91 311.15 158.03L312 158.26L312 158.81L310.77 158.76C310.75 158.66 310.71 158.47 310.58 158.25C310.5 158.04 310.41 157.88 310.37 157.68C310.33 157.49 310.25 157.28 310.23 157C310.24 156.46 310.29 155.92 310.51 155.43Z" fill="#f6950099" fill-opacity="1.000000" fill-rule="nonzero"/>
		<path id="Vector" d="M317.23 161.54L316.81 161.57L316.62 160.74L312.39 161.12L313.46 161.73L316.65 163.87L316.89 163.84L316.91 163.07L317.33 163.04L317.54 165.35L317.12 165.37L316.97 164.73L311.75 165.22L311.74 165.95L311.32 165.97L311.12 163.62L311.54 163.6L311.71 164.33L315.99 163.96L314.94 163.41L311.72 161.21L311.44 161.23L311.41 162L310.99 162.03L310.8 159.68L311.22 159.66L311.36 160.34L316.58 159.85L316.63 159.18L317.04 159.15L317.23 161.54Z" fill="#f6950099" fill-opacity="1.000000" fill-rule="nonzero"/>
		<path id="Vector" d="M317.81 170.7L315.61 170.84L315.58 170.28L317.27 169.96L317.26 168.12L311.96 168.35L311.94 169.81L311.52 169.84L311.35 166.53L311.77 166.51L311.89 167.41L317.1 167.16L317.16 166.25L317.58 166.23L317.81 170.7Z" fill="#f6950099" fill-opacity="1.000000" fill-rule="nonzero"/>
		<path id="Vector" d="M317.32 172.17L317.41 171.51L317.82 171.53L317.8 173.82L317.39 173.8L317.31 173.09L315.06 173.08L315.04 176.06L317.29 176.07L317.37 175.4L317.78 175.42L317.78 177.67L317.37 177.65L317.27 176.98L312.03 177L311.95 177.67L311.54 177.65L311.54 175.4L311.95 175.42L312.04 176.13L314.47 176.14L314.49 173.16L312.06 173.15L311.96 173.86L311.55 173.84L311.52 171.54L311.93 171.56L312.03 172.22L317.32 172.17Z" fill="#f6950099" fill-opacity="1.000000" fill-rule="nonzero"/>
		<path id="Vector" d="M317.79 180.7L317.78 181.61L311.88 183.39L311.79 183.91L311.38 183.89L311.47 181.67L311.88 181.69L311.92 182.39L313.21 182.04L313.31 179.59L312.1 179.13L312.01 179.84L311.6 179.82L311.68 177.82L312.08 177.84L312.13 178.36L317.79 180.7ZM316.42 181.2L317.15 181.03L316.39 180.78L313.72 179.79L313.61 181.92L316.42 181.2Z" fill="#f6950099" fill-opacity="1.000000" fill-rule="nonzero"/>
		<path id="Vector" d="M313.45 186.28C312.68 186.08 312.13 185.89 311.75 185.6C311.56 185.46 311.41 185.33 311.36 185.17C311.26 185.01 311.27 184.83 311.27 184.65C311.29 184.38 311.3 184.19 311.38 184.08L312.06 184.08C312.03 184.21 312.01 184.43 311.99 184.7C311.97 184.79 311.99 184.88 312.05 184.99C312.07 185.09 312.14 185.16 312.26 185.23C312.87 185.72 314.25 186.04 316.27 186.21L316.94 186.26L317.11 185.29L317.52 185.31L317.09 190.15L316.68 190.14L316.67 189.35L311.47 188.88L311.29 189.7L310.88 189.68L311.12 187.08L311.53 187.1L311.53 187.97L316.72 188.45L316.86 186.74L316.1 186.67C315.07 186.58 314.19 186.44 313.45 186.28Z" fill="#f6950099" fill-opacity="1.000000" fill-rule="nonzero"/>
		<path id="Vector" d="M314.19 193.46C314.1 194.13 313.87 194.66 313.46 194.97C313.1 195.28 312.62 195.38 312.04 195.32C311.41 195.24 310.95 194.93 310.65 194.49C310.36 194.04 310.28 193.47 310.37 192.81C310.39 192.72 310.41 192.63 310.39 192.54C310.37 192.44 310.44 192.37 310.47 192.24C310.56 191.94 310.59 191.63 310.66 191.37L310.83 190.22L311.23 190.28L311.22 191.01L316.43 191.77L316.66 191.09L317.05 191.15L316.69 193.54L316.29 193.48L316.24 192.64L314.3 192.34L314.19 193.46ZM310.93 192.27C310.9 192.35 310.86 192.52 310.85 192.71C310.77 193.19 310.86 193.53 311.1 193.83C311.35 194.12 311.67 194.3 312.16 194.34C312.6 194.41 312.99 194.33 313.23 194.12C313.51 193.92 313.65 193.59 313.73 193.11L313.86 192.27L311.03 191.88C310.98 192.05 310.95 192.18 310.93 192.27ZM315.86 199.05L315.46 198.99L315.48 198.22L310.31 197.47L310.1 198.24L309.71 198.18L310.04 195.75L310.44 195.81L310.41 196.58L315.58 197.32L315.79 196.55L316.19 196.61L315.86 199.05Z" fill="#f6950099" fill-opacity="1.000000" fill-rule="nonzero"/>
		<path id="Vector" d="M314.59 202.75L314.85 202.13L315.23 202.23L314.72 204.49L314.34 204.38L314.39 203.66L312.18 203.16L311.54 206.07L313.75 206.57L314.01 205.95L314.39 206.05L313.9 208.26L313.51 208.15L313.55 207.48L308.43 206.38L308.22 207.01L307.83 206.91L308.33 204.7L308.71 204.8L308.67 205.48L311.06 205.98L311.7 203.08L309.31 202.58L309.07 203.29L308.69 203.19L309.2 200.94L309.58 201.04L309.54 201.72L314.59 202.75Z" fill="#f6950099" fill-opacity="1.000000" fill-rule="nonzero"/>
		<path id="Vector" d="M313.22 211.11L312.98 212.01L306.86 212.57L306.64 213.06L306.25 212.96L306.79 210.81L307.17 210.91L307.07 211.62L308.38 211.55L308.96 209.19L307.86 208.52L307.59 209.18L307.2 209.08L307.68 207.14L308.06 207.25L308.01 207.78L313.22 211.11ZM311.8 211.28L312.59 211.26L311.9 210.89L309.5 209.42L308.99 211.49L311.8 211.28Z" fill="#f6950099" fill-opacity="1.000000" fill-rule="nonzero"/>
		<path id="Vector" d="M310.73 217.83L311.15 216.98L311.52 217.12L310.82 219.23L306.85 219.13L305.76 219.07L306.71 219.65L309.94 221.98L309.24 224.09L308.87 223.94L309.06 223.03L303.88 222.01L303.56 222.66L303.19 222.51L303.95 220.19L304.32 220.34L304.17 221.08L307.89 221.94L309.5 222.27L308.45 221.54L304.74 218.8L304.92 218.29L309.19 218.29L310.88 218.33L309.36 217.65L305.87 216.11L305.52 216.89L305.15 216.75L305.84 214.68L306.21 214.83L306.07 215.53L310.73 217.83Z" fill="#f6950099" fill-opacity="1.000000" fill-rule="nonzero"/>
		<path id="Vector" d="M308.06 227.12L307.73 228L301.59 227.78L301.34 228.21L300.97 228.07L301.8 226L302.17 226.14L301.99 226.83L303.3 226.9L304.19 224.62L303.17 223.79L302.81 224.43L302.44 224.29L303.17 222.42L303.54 222.56L303.45 223.09L308.06 227.12ZM306.6 227.1L307.36 227.17L306.74 226.72L304.56 224.95L303.79 226.94L306.6 227.1Z" fill="#f6950099" fill-opacity="1.000000" fill-rule="nonzero"/>
		<path id="Vector" d="M305.78 231.19L306.15 230.65L306.52 230.8L306.07 231.82C305.97 232.03 305.92 232.2 305.83 232.36C305.71 232.64 305.64 232.9 305.53 233.15C305.19 233.88 304.84 234.34 304.42 234.55C304.01 234.71 303.54 234.73 302.97 234.48C302.56 234.28 302.25 234.06 302.02 233.72C301.79 233.39 301.7 233.04 301.67 232.62C301.65 232.2 301.76 231.77 301.96 231.37C302.05 231.21 302.09 231.08 302.18 230.92C302.26 230.76 302.29 230.67 302.34 230.64L300.66 229.91L300.11 230.92L299.74 230.77L300.87 228.27L301.24 228.42L301.01 229.09L305.78 231.19ZM302.37 231.57C302.17 231.97 302.16 232.34 302.29 232.74C302.41 233.14 302.75 233.41 303.32 233.66C303.77 233.87 304.14 233.88 304.4 233.76C304.71 233.62 304.93 233.31 305.15 232.86C305.23 232.7 305.28 232.53 305.34 232.32C305.37 232.19 305.39 232.1 305.41 232.06L302.65 230.86C302.62 230.99 302.51 231.24 302.37 231.57Z" fill="#f6950099" fill-opacity="1.000000" fill-rule="nonzero"/>
		<path id="Vector" d="M298.35 234.39C298.79 234.14 299.29 234 299.79 234C300.34 234.01 300.9 234.16 301.46 234.44C302.03 234.73 302.48 235.09 302.78 235.53C303.11 235.99 303.26 236.49 303.3 237C303.35 237.52 303.25 238.05 302.97 238.57C302.77 238.97 302.48 239.4 302.11 239.9L301.96 240.13L300.64 239.41L300.86 238.92L301.93 239.21C302.03 239.19 302.15 239.08 302.28 238.93C302.41 238.79 302.51 238.58 302.67 238.35C302.84 238.03 302.88 237.72 302.8 237.33C302.75 236.99 302.56 236.67 302.29 236.32C302.01 236.01 301.62 235.73 301.1 235.45C300.61 235.23 300.15 235.06 299.71 234.99C299.27 234.91 298.85 234.94 298.48 235.12C298.12 235.25 297.87 235.5 297.67 235.91C297.55 236.2 297.45 236.4 297.45 236.58C297.4 236.75 297.41 236.89 297.46 237.05L298.06 237.71L297.76 238.14L296.76 237.41C296.8 237.28 296.85 237.11 296.9 236.9C296.96 236.68 296.96 236.5 297.02 236.28C297.07 236.11 297.18 235.87 297.29 235.62C297.57 235.1 297.91 234.69 298.35 234.39Z" fill="#f6950099" fill-opacity="1.000000" fill-rule="nonzero"/>
		<path id="Vector" d="M298.52 246.79L298.17 246.56L298.52 245.78L294.86 243.65L295.39 244.76L296.72 248.37L296.92 248.47L297.41 247.87L297.76 248.1L296.58 250.08L296.23 249.85L296.49 249.23L291.96 246.59L291.53 247.16L291.17 246.98L292.35 244.95L292.72 245.14L292.39 245.83L296.08 248.02L295.53 247L294.21 243.34L293.93 243.17L293.44 243.82L293.08 243.63L294.27 241.56L294.64 241.75L294.37 242.41L298.89 245.05L299.31 244.52L299.66 244.75L298.52 246.79Z" fill="#f6950099" fill-opacity="1.000000" fill-rule="nonzero"/>
		<path id="Vector" d="M295.49 251.58C295.38 251.82 295.32 252.04 295.24 252.2C295.15 252.36 295.06 252.52 294.98 252.63C294.59 253.22 294.21 253.62 293.8 253.79C293.39 253.95 292.98 253.93 292.59 253.69C292.19 253.45 292 253.12 291.92 252.73C291.84 252.34 291.89 251.99 292.05 251.57C291.75 252 291.4 252.27 291.02 252.35C290.63 252.43 290.27 252.38 289.92 252.15C289.41 251.83 289.11 251.43 289.06 250.91C289.01 250.44 289.17 249.84 289.63 249.13C289.79 248.86 289.99 248.63 290.19 248.41C290.38 248.23 290.55 248.09 290.67 247.99C290.79 247.88 290.86 247.81 290.9 247.82L292.03 248.72L291.8 249.07L290.77 248.66C290.5 248.81 290.24 249.07 289.95 249.49C289.73 249.8 289.69 250.11 289.75 250.4C289.81 250.7 290.06 250.95 290.46 251.19C290.73 251.36 291.03 251.44 291.37 251.39C291.7 251.34 291.99 251.1 292.24 250.7L292.56 250.19L292.95 250.44L292.71 250.83C292.57 251.02 292.51 251.24 292.45 251.45C292.44 251.68 292.47 251.91 292.55 252.12C292.63 252.32 292.81 252.51 293.04 252.67C293.35 252.89 293.66 252.92 293.91 252.85C294.16 252.78 294.4 252.57 294.62 252.26C294.76 252.07 294.86 251.87 294.87 251.68C294.91 251.51 294.91 251.37 294.84 251.26L294.26 250.7L294.56 250.27L295.68 250.89C295.65 251.16 295.56 251.32 295.49 251.58Z" fill="#f6950099" fill-opacity="1.000000" fill-rule="nonzero"/>
		<path id="Vector" d="M291.08 257.42L291.58 256.91L291.94 257.14L291.28 258.07C291.14 258.22 291.04 258.42 290.88 258.7C290.72 258.93 290.63 259.09 290.56 259.21C290.12 259.82 289.69 260.21 289.29 260.34C288.89 260.46 288.49 260.4 288.15 260.12C287.85 259.9 287.6 259.61 287.52 259.22C287.43 258.87 287.48 258.52 287.63 258.15C287.33 258.57 286.98 258.84 286.58 258.97C286.19 259.05 285.79 258.99 285.46 258.71C285 258.36 284.75 257.93 284.7 257.41C284.66 256.89 284.88 256.22 285.45 255.5C285.58 255.35 285.67 255.19 285.8 255.04C286.07 254.7 286.23 254.47 286.28 254.43L286.94 253.51L287.29 253.74L286.95 254.34L291.08 257.42ZM285.71 255.7C285.36 256.16 285.24 256.59 285.25 256.91C285.25 257.23 285.49 257.57 285.84 257.8C286.18 258.08 286.52 258.17 286.81 258.11C287.1 258.05 287.4 257.81 287.68 257.43C288.03 256.97 288.21 256.65 288.29 256.53L286.25 255.07C286.19 255.1 286 255.32 285.71 255.7ZM288.44 257.17L288.15 257.55C287.93 257.86 287.85 258.16 287.91 258.45C287.97 258.74 288.17 259.03 288.48 259.25C288.79 259.47 289.09 259.55 289.37 259.53C289.62 259.46 289.9 259.26 290.2 258.83C290.33 258.69 290.43 258.48 290.52 258.32L290.61 258.16L288.73 256.79C288.7 256.87 288.58 256.98 288.44 257.17Z" fill="#f6950099" fill-opacity="1.000000" fill-rule="nonzero"/>
		<path id="Vector" d="M287.13 263.61L286.57 264.33L280.73 262.31L280.35 262.67L280.01 262.4L281.4 260.66L281.74 260.93L281.35 261.51L282.56 261.98L284.09 260.04L283.36 258.98L282.86 259.49L282.52 259.21L283.76 257.66L284.1 257.94L283.84 258.42L287.13 263.61ZM285.74 263.15L286.44 263.43L285.97 262.8L284.39 260.45L283.07 262.11L285.74 263.15Z" fill="#f6950099" fill-opacity="1.000000" fill-rule="nonzero"/>
		<path id="Vector" d="M279.31 263.67C279.8 263.53 280.31 263.53 280.82 263.67C281.34 263.81 281.85 264.13 282.34 264.53C282.82 264.94 283.16 265.4 283.35 265.9C283.53 266.41 283.57 266.93 283.48 267.46C283.39 267.98 283.12 268.46 282.78 268.87C282.5 269.21 282.09 269.56 281.62 269.94L281.39 270.11L280.3 269.04L280.69 268.64L281.64 269.17C281.74 269.15 281.89 269.1 282.07 268.96C282.23 268.87 282.42 268.69 282.57 268.45C282.82 268.2 282.96 267.87 282.96 267.5C283.01 267.15 282.92 266.8 282.7 266.42C282.48 266.04 282.22 265.65 281.76 265.3C281.35 264.96 280.97 264.67 280.55 264.51C280.13 264.35 279.74 264.29 279.36 264.33C278.98 264.37 278.66 264.56 278.38 264.9C278.18 265.12 278.04 265.31 278 265.48C277.91 265.64 277.92 265.78 277.88 265.91L278.26 266.7L277.85 267.05L277.09 266.11C277.16 266.04 277.25 265.88 277.36 265.63C277.46 265.43 277.55 265.27 277.64 265.11C277.72 264.95 277.87 264.76 278.07 264.54C278.35 264.15 278.81 263.82 279.31 263.67Z" fill="#f6950099" fill-opacity="1.000000" fill-rule="nonzero"/>
		<path id="Vector" d="M277.54 272.66C277.68 273.16 277.7 273.62 277.58 274.05C277.47 274.48 277.27 274.88 276.91 275.2C276.52 275.6 276.09 275.85 275.65 275.96C275.2 276.07 274.71 276.03 274.25 275.86C273.79 275.69 273.32 275.38 272.88 274.99C272.4 274.54 272.03 274.03 271.86 273.48C271.67 272.97 271.59 272.44 271.71 271.97C271.79 271.49 272.05 271.05 272.38 270.68C272.76 270.28 273.2 270.03 273.65 269.87C274.09 269.76 274.59 269.8 275.05 269.97C275.51 270.14 275.98 270.45 276.42 270.84L277.37 269.86L275.58 268.14L275.01 268.58L274.72 268.28L276.32 266.59L276.62 266.86L276.19 267.43L279.94 271.05L280.47 270.64L280.75 270.95L279.17 272.59L278.88 272.28L279.31 271.71L277.67 270.12L276.72 271.11C277.16 271.68 277.4 272.16 277.54 272.66ZM277.01 273.44C276.88 272.9 276.49 272.29 275.84 271.65C275.25 271.08 274.66 270.74 274.09 270.63C273.52 270.53 273.02 270.67 272.64 271.07C272.26 271.47 272.14 271.9 272.27 272.44C272.4 272.98 272.79 273.59 273.49 274.24C274.07 274.81 274.63 275.14 275.18 275.29C275.74 275.44 276.2 275.28 276.58 274.88C276.96 274.48 277.09 274.01 277.01 273.44Z" fill="#f6950099" fill-opacity="1.000000" fill-rule="nonzero"/>
		<path id="Vector" d="M269.31 277.52C268.95 277.47 268.48 277.35 267.92 277.2C267.54 277.09 267.24 277.01 267.02 276.96C266.85 276.91 266.71 276.92 266.6 276.98L266.29 277.13L266 276.82L266.75 276.1C266.86 276.04 267.01 275.99 267.31 276.07C267.56 276.14 267.95 276.24 268.46 276.38C269.01 276.57 269.44 276.69 269.79 276.73C270.09 276.81 270.33 276.79 270.46 276.64L270.83 276.28L269.19 274.51L268.57 274.94L268.29 274.63L269.99 273.07L270.28 273.38L269.82 273.9L273.38 277.74L273.94 277.34L274.23 277.65L272.58 279.18L272.29 278.87L272.72 278.3L271.09 276.53L270.54 277.03L270.94 279.98L271.51 279.58L271.79 279.89L270.26 281.31L269.98 281.01L270.4 280.48L270.06 277.45C269.98 277.57 269.66 277.57 269.31 277.52Z" fill="#f6950099" fill-opacity="1.000000" fill-rule="nonzero"/>
		<path id="Vector" d="M265.12 278.05C265.6 278 266.08 278.08 266.52 278.34C267.01 278.56 267.41 278.94 267.83 279.42C268.25 279.9 268.52 280.43 268.66 280.97C268.79 281.51 268.79 282.02 268.62 282.48C268.45 282.94 268.2 283.38 267.78 283.72C267.13 284.28 266.42 284.51 265.71 284.41C265.01 284.31 264.35 283.86 263.67 283.13C263.25 282.65 262.98 282.12 262.85 281.58C262.72 281.04 262.71 280.53 262.9 280.03C263.03 279.51 263.32 279.13 263.73 278.78C264.18 278.31 264.65 278.11 265.12 278.05ZM268.08 281.92C268 281.35 267.67 280.71 267.07 280.04C266.51 279.39 265.97 279.01 265.42 278.82C264.88 278.63 264.39 278.73 263.98 279.08C263.56 279.43 263.39 279.89 263.47 280.46C263.54 281.03 263.88 281.67 264.47 282.38C265.03 283.03 265.57 283.41 266.12 283.6C266.67 283.75 267.16 283.65 267.57 283.3C267.99 282.95 268.16 282.49 268.08 281.92Z" fill="#f6950099" fill-opacity="1.000000" fill-rule="nonzero"/>
		<path id="Vector" d="M264.16 285.92L264.76 285.58L265.03 285.93L264.16 286.61C264 286.71 263.81 286.89 263.62 287.11C263.43 287.29 263.26 287.42 263.15 287.49C262.51 287.96 262.04 288.2 261.62 288.22C261.2 288.25 260.84 288.06 260.56 287.71C260.32 287.42 260.18 287.06 260.19 286.69C260.2 286.33 260.33 286 260.6 285.7C260.18 286.05 259.77 286.21 259.36 286.2C258.95 286.18 258.59 285.99 258.32 285.64C257.98 285.18 257.84 284.69 257.93 284.16C258.03 283.64 258.46 283.06 259.15 282.51C259.33 282.38 259.49 282.28 259.61 282.18C259.96 281.9 260.18 281.78 260.24 281.7L261.11 281.02L261.35 281.36L260.84 281.87L264.16 285.92ZM259.48 282.83C259.02 283.17 258.79 283.52 258.74 283.87C258.69 284.23 258.79 284.57 259.06 284.92C259.33 285.27 259.61 285.44 259.92 285.47C260.23 285.51 260.55 285.37 260.95 285.06C261.41 284.73 261.7 284.48 261.78 284.37L260.24 282.39C260.07 282.35 259.84 282.51 259.48 282.83ZM261.7 284.99L261.35 285.26C261.06 285.5 260.89 285.78 260.86 286.09C260.82 286.4 260.92 286.71 261.21 287.01C261.45 287.31 261.73 287.47 262 287.5C262.26 287.53 262.58 287.38 262.98 287.07C263.16 286.94 263.29 286.79 263.46 286.65L263.58 286.55L262.15 284.69C262 284.75 261.88 284.85 261.7 284.99Z" fill="#f6950099" fill-opacity="1.000000" fill-rule="nonzero"/>
		<g style="mix-blend-mode:overlay">
			<circle id="Ellipse 7" cx="77.271484" cy="74.997559" r="0.901438" fill="#f6950099" fill-opacity="1.000000"/>
		</g>
		<g style="mix-blend-mode:overlay">
			<circle id="Ellipse 8" cx="259.586670" cy="63.445923" r="0.901438" fill="#f6950099" fill-opacity="1.000000"/>
		</g>
	</g>
</svg>
